<svg xmlns="http://www.w3.org/2000/svg" version="1.1" xmlns:xlink="http://www.w3.org/1999/xlink" xmlns:svgjs="http://svgjs.com/svgjs" width="642" height="279"><svg width="642" height="279" viewBox="0 0 642 279" fill="none" xmlns="http://www.w3.org/2000/svg">
<path d="M385.645 0V7.85863C374.888 8.11003 366.808 9.0877 361.418 10.801C356.017 12.4956 352.446 15.6241 350.706 20.1866C348.954 24.7584 348.084 31.8721 348.084 41.5278V235.908C348.084 245.321 348.954 252.37 350.706 257.063C352.446 261.756 356.017 264.903 361.418 266.486C366.808 268.05 374.888 269.093 385.645 269.614V277.436C377.713 276.914 367.893 276.598 356.175 276.467C344.446 276.318 332.558 276.244 320.512 276.244C307.19 276.244 294.669 276.318 282.951 276.467C271.222 276.598 261.865 276.914 254.882 277.436V269.614C265.662 269.093 273.832 268.05 279.38 266.486C284.917 264.903 288.646 261.756 290.545 257.063C292.443 252.37 293.392 245.321 293.392 235.908V21.5647L295.788 22.3468L178.811 279H171.172L48.4995 25.0657V225.703C48.4995 236.681 49.4487 245.247 51.3471 251.402C53.2454 257.538 57.3586 261.905 63.6866 264.512C70.0372 267.119 79.71 268.823 92.7049 269.614V277.436C86.7047 276.914 79.0207 276.598 69.653 276.467C60.3079 276.318 51.5053 276.244 43.2563 276.244C35.3237 276.244 27.4024 276.318 19.4811 276.467C11.5486 276.598 5.06239 276.914 0 277.436V269.614C10.4525 268.823 18.3737 267.184 23.7751 264.698C29.1652 262.221 32.8151 257.975 34.7135 251.96C36.6119 245.955 37.5611 237.724 37.5611 227.267V41.5278C37.5611 31.8721 36.6119 24.7584 34.7135 20.1866C32.8151 15.6241 29.1652 12.4956 23.7751 10.801C18.3737 9.0877 10.4525 8.11003 0 7.85863V0C5.06239 0.279334 11.5486 0.54936 19.4811 0.819383C27.4024 1.07079 35.3237 1.19183 43.2563 1.19183C52.4431 1.19183 61.7091 1.07079 71.0542 0.819383C80.4219 0.54936 88.4335 0.279334 95.1005 0L200.19 222.574L191.15 227.677L294.342 1.19183C298.466 1.19183 302.749 1.19183 307.178 1.19183C311.631 1.19183 316.083 1.19183 320.512 1.19183C332.558 1.19183 344.446 1.07079 356.175 0.819383C367.893 0.54936 377.713 0.279334 385.645 0Z" fill="#1E2148"></path>
<path d="M375.184 0C382.472 0.279334 391.908 0.54936 403.479 0.819383C415.05 1.07079 426.542 1.19183 437.966 1.19183C453.176 1.19183 467.674 1.07079 481.449 0.819383C495.246 0.54936 505.009 0.409692 510.738 0.409692C546.231 0.409692 572.775 6.16399 590.38 17.654C607.974 29.1533 616.777 43.9022 616.777 61.9007C616.777 71.0629 614.156 80.1506 608.912 89.1638C603.692 98.177 595.217 106.278 583.465 113.447C571.735 120.626 556.209 126.315 536.864 130.505V131.288C563.498 133.625 584.425 138.317 599.646 145.366C614.856 152.424 625.636 160.851 631.964 170.655C638.315 180.469 641.501 190.721 641.501 201.419C641.501 216.839 636.733 230.237 627.218 241.606C617.726 252.957 604.008 261.774 586.086 268.05C568.187 274.307 546.717 277.436 521.677 277.436C514.682 277.436 504.139 277.24 490.037 276.84C475.934 276.449 458.894 276.244 438.916 276.244C426.859 276.244 415.05 276.318 403.479 276.467C391.908 276.598 382.472 276.914 375.184 277.436V269.614C385.964 269.093 394.055 268.05 399.456 266.486C404.846 264.903 408.406 261.756 410.123 257.063C411.864 252.37 412.745 245.321 412.745 235.908V41.5278C412.745 31.8721 411.864 24.7584 410.123 20.1866C408.406 15.6241 404.767 12.4956 399.23 10.801C393.682 9.0877 385.67 8.11003 375.184 7.85863V0ZM500.749 7.85863C487.099 7.85863 478.127 10.084 473.855 14.5254C469.572 18.9482 467.437 27.9521 467.437 41.5278V235.908C467.437 245.051 468.386 251.979 470.284 256.69C472.205 261.383 475.629 264.512 480.545 266.076C485.449 267.64 492.658 268.422 502.15 268.422C530.683 268.422 551.373 262.491 564.21 250.62C577.069 238.729 583.51 221.811 583.51 199.855C583.51 179.743 577.069 164.203 564.21 153.225C551.373 142.256 530.219 136.762 500.749 136.762H454.6C454.6 136.762 454.6 135.664 454.6 133.448C454.6 131.213 454.6 130.096 454.6 130.096H495.506C512.953 130.096 526.423 127.172 535.915 121.306C545.429 115.421 551.938 107.591 555.441 97.8046C558.933 87.9999 560.684 77.469 560.684 66.2211C560.684 46.9097 556.074 32.3563 546.853 22.5703C537.655 12.7656 522.287 7.85863 500.749 7.85863Z" fill="#1E2148"></path>
</svg><style>@media (prefers-color-scheme: light) { :root { filter: none; } }
@media (prefers-color-scheme: dark) { :root { filter: invert(100%); } }
</style></svg>