<svg width="443" height="156" viewBox="0 0 443 156" fill="none" xmlns="http://www.w3.org/2000/svg">
<path d="M250.896 0.879044V4.50121C245.938 4.61709 242.214 5.06771 239.73 5.85738C237.24 6.63846 235.594 8.08046 234.792 10.1834C233.985 12.2906 233.584 15.5694 233.584 20.0199V109.613C233.584 113.952 233.985 117.2 234.792 119.363C235.594 121.526 237.24 122.977 239.73 123.707C242.214 124.428 245.938 124.908 250.896 125.149V128.754C247.24 128.513 242.714 128.367 237.313 128.307C231.907 128.239 226.428 128.204 220.876 128.204C214.735 128.204 208.964 128.239 203.563 128.307C198.157 128.367 193.844 128.513 190.626 128.754V125.149C195.594 124.908 199.36 124.428 201.917 123.707C204.469 122.977 206.188 121.526 207.063 119.363C207.938 117.2 208.376 113.952 208.376 109.613V10.8185L209.48 11.179L155.563 129.475H152.042L95.5005 12.4322V104.909C95.5005 109.969 95.938 113.917 96.813 116.754C97.688 119.582 99.5839 121.595 102.501 122.797C105.428 123.998 109.886 124.784 115.876 125.149V128.754C113.11 128.513 109.568 128.367 105.251 128.307C100.943 128.239 96.8859 128.204 93.0839 128.204C89.4276 128.204 85.7766 128.239 82.1255 128.307C78.4693 128.367 75.4797 128.513 73.1464 128.754V125.149C77.9641 124.784 81.6151 124.028 84.1047 122.883C86.5891 121.741 88.2714 119.784 89.1464 117.012C90.0214 114.243 90.4589 110.45 90.4589 105.63V20.0199C90.4589 15.5694 90.0214 12.2906 89.1464 10.1834C88.2714 8.08046 86.5891 6.63846 84.1047 5.85738C81.6151 5.06771 77.9641 4.61709 73.1464 4.50121V0.879044C75.4797 1.00779 78.4693 1.13225 82.1255 1.25671C85.7766 1.37259 89.4276 1.42838 93.0839 1.42838C97.3182 1.42838 101.589 1.37259 105.896 1.25671C110.214 1.13225 113.907 1.00779 116.98 0.879044L165.417 103.467L161.251 105.819L208.813 1.42838C210.714 1.42838 212.688 1.42838 214.73 1.42838C216.782 1.42838 218.834 1.42838 220.876 1.42838C226.428 1.42838 231.907 1.37259 237.313 1.25671C242.714 1.13225 247.24 1.00779 250.896 0.879044Z" fill="#1E2148"/>
<path d="M246.074 0.879044C249.434 1.00779 253.783 1.13225 259.116 1.25671C264.449 1.37259 269.746 1.42838 275.012 1.42838C282.022 1.42838 288.705 1.37259 295.054 1.25671C301.413 1.13225 305.913 1.06788 308.554 1.06788C324.913 1.06788 337.147 3.72013 345.262 9.01604C353.371 14.3163 357.429 21.1143 357.429 29.41C357.429 33.633 356.22 37.8217 353.804 41.976C351.397 46.1304 347.491 49.8641 342.074 53.1687C336.668 56.4776 329.512 59.0998 320.595 61.031V61.3915C332.871 62.4688 342.517 64.6318 349.533 67.8805C356.543 71.1336 361.512 75.0176 364.429 79.5367C367.356 84.0601 368.824 88.7853 368.824 93.7164C368.824 100.823 366.627 106.999 362.241 112.239C357.866 117.471 351.543 121.535 343.283 124.428C335.033 127.312 325.137 128.754 313.595 128.754C310.371 128.754 305.512 128.663 299.012 128.479C292.512 128.299 284.658 128.204 275.449 128.204C269.892 128.204 264.449 128.239 259.116 128.307C253.783 128.367 249.434 128.513 246.074 128.754V125.149C251.043 124.908 254.772 124.428 257.262 123.707C259.746 122.977 261.387 121.526 262.179 119.363C262.981 117.2 263.387 113.952 263.387 109.613V20.0199C263.387 15.5694 262.981 12.2906 262.179 10.1834C261.387 8.08046 259.71 6.63846 257.158 5.85738C254.601 5.06771 250.908 4.61709 246.074 4.50121V0.879044ZM303.949 4.50121C297.658 4.50121 293.522 5.52692 291.554 7.57404C289.58 9.61259 288.595 13.7626 288.595 20.0199V109.613C288.595 113.827 289.033 117.02 289.908 119.192C290.793 121.355 292.371 122.797 294.637 123.518C296.897 124.239 300.22 124.599 304.595 124.599C317.746 124.599 327.283 121.865 333.199 116.394C339.127 110.913 342.095 103.115 342.095 92.9954C342.095 83.7254 339.127 76.5626 333.199 71.5027C327.283 66.4471 317.533 63.915 303.949 63.915H282.679C282.679 63.915 282.679 63.4086 282.679 62.3872C282.679 61.3572 282.679 60.8422 282.679 60.8422H301.533C309.574 60.8422 315.783 59.4946 320.158 56.7909C324.543 54.0785 327.543 50.4693 329.158 45.9587C330.767 41.4396 331.574 36.5857 331.574 31.4014C331.574 22.5005 329.449 15.7926 325.199 11.282C320.96 6.76292 313.877 4.50121 303.949 4.50121Z" fill="#1E2148"/>
<path d="M77.5885 55.5028C77.5885 55.5028 77.5885 55.5028 77.6562 55.5028M57.5677 82.9266C52.4896 83.9695 64.2656 62.4167 66.875 51.0867C69.3437 39.7567 59.401 42.1987 51.151 52.945C46.4271 58.8718 42.125 67.1204 40.0104 69.0988C39.0937 65.9616 50.1667 45.1599 51.7864 33.4823C52.8437 24.8861 45.5104 24.4183 34.4427 37.4907C22.3125 51.782 10.3281 76.0127 5.81249 82.1713C6.16666 77.0556 18.5052 47.6019 22.3125 44.1728C22.8073 44.057 23.3021 43.7651 23.4427 43.3617C23.9375 42.3703 21.9635 41.9669 20.5521 43.8252C15.5469 50.4473 4.47395 74.8497 3.6302 82.227C3.27603 85.3085 5.39061 86.1797 8.56249 81.3558C13.9219 73.2231 25.276 50.679 35.9219 37.9585C44.0312 28.1392 51.4323 25.2895 49.9531 33.7741C48.3333 43.3617 37.9687 64.3351 38.25 69.2705C38.3906 70.8413 39.7969 71.1889 41.7031 69.1546C43.8177 66.8328 48.401 59.1035 52.9114 53.4128C61.7292 42.3703 67.1562 43.0699 65.1094 51.2627C62.5729 61.1378 48.2604 86.0638 57.0052 84.7248C58.5521 84.493 59.1198 82.6348 57.5677 82.9266ZM92.4635 58.9319C89.0781 62.1249 84.9219 66.2492 80.6875 68.5152C76.25 70.8413 71.5208 70.9571 71.7344 66.6569C71.8073 64.1591 73.1458 61.8931 75.1875 59.3954C76.1771 58.2924 74.3437 57.7088 73.4271 58.8117C71.3802 61.2537 69.901 64.3351 69.6927 67.1204C69.4062 72.8154 75.401 73.1073 81.3958 69.7383C85.9792 67.1805 89.9948 62.8244 93.3125 59.3353C93.8021 58.8117 93.026 58.4641 92.4635 58.9319ZM77.7969 55.387C77.8698 55.3269 78.9948 55.0393 79.0677 54.108C79.0677 53.5287 78.4323 53.2368 77.6562 53.4128C76.5312 53.7604 75.9635 54.5715 75.5417 55.4428C75.3333 55.9663 75.1198 56.4899 75.1198 57.0135C75.1198 57.477 75.8958 57.4212 76.1771 56.9534C76.5312 56.55 76.9531 55.9106 77.7969 55.387ZM117.776 58.9319C114.531 61.6013 110.797 64.6226 107.13 66.8886C100.5 70.897 93.9427 71.7683 95.1406 66.3093C95.5677 64.5668 96.6927 62.3008 98.6667 59.8031C99.7969 58.58 99.4427 58.0607 97.9635 58.2323C97.2552 58.3482 96.2708 58.5242 95.2812 58.58C93.099 58.6958 93.3073 58.0607 94.7917 56.6659C96.0573 55.5586 94.224 54.9793 93.1667 55.9663C90.349 58.7559 90.6979 60.4983 94.651 60.2666C95.3542 60.2065 95.849 60.1507 96.4115 60.0906C94.9323 62.1249 93.7344 64.3909 93.1667 66.541C91.5469 73.6308 99.5833 73.2789 107.974 67.8757C112.062 65.2063 115.38 62.185 118.479 59.3353C119.047 58.8718 118.339 58.4641 117.776 58.9319ZM146.401 58.9319C143.37 61.6013 138.854 65.6698 133.635 68.3435C128.63 70.9571 123.979 71.1288 125.104 66.4251C125.672 64.3351 126.797 62.3008 127.365 60.4425C128.141 57.8847 126.234 57.5929 123.839 60.0906C122.354 61.7773 121.089 63.6355 119.396 65.7857C116.365 69.4465 113.052 71.9442 113.401 68.5152C113.755 64.9703 118.406 57.0693 120.948 59.8589C121.651 60.6142 123.698 59.2795 122.99 58.5242C118.901 54.048 111.99 64.1591 111.146 68.9229C110.583 73.1073 115.589 73.5107 120.948 66.1333C122.286 64.275 123.979 61.6614 124.964 60.4425C126.167 58.8718 126.516 59.4512 126.021 60.5584C125.318 62.009 123.906 64.3909 123.203 66.6569C121.229 72.7553 127.505 73.2789 134.344 69.5623C138.995 67.0646 143.719 62.8802 147.177 59.3353C147.667 58.8117 146.964 58.4641 146.401 58.9319ZM179.818 58.8718C175.516 61.9532 171.5 65.0904 167.833 66.6011C160.219 69.7941 160.427 64.7986 160.568 62.009C160.922 55.6187 155 56.4298 150.63 61.0777C147.312 64.5668 144.708 69.5023 143.224 70.5494C142.307 68.983 146.255 61.6013 148.021 58.9319C148.724 57.8246 146.75 57.477 146.047 58.64C143.578 62.3008 141.182 67.9916 141.464 70.6653C141.672 72.176 143.156 72.5236 145.057 70.4936C146.823 68.5753 149.219 64.5668 151.969 61.7773C155.214 58.4641 158.385 57.7088 158.172 62.6485C158.104 65.5539 158.526 72.1202 168.182 67.7598C172.484 65.8458 176.786 62.2408 180.453 59.3954C181.089 58.9319 180.453 58.4083 179.818 58.8718ZM209.146 58.7559C206.396 61.6614 202.589 65.378 199.068 67.7598C192.156 72.3519 186.516 70.6653 189.615 60.2666C194.13 57.5929 204.214 48.7649 208.516 40.7438C212.323 33.4265 206.75 33.89 201.604 38.3061C194.906 43.9969 189.193 54.2239 187.219 61.0777C186.516 62.009 183.344 66.2492 180.802 68.5152C178.76 70.4335 177.349 70.7812 177.208 68.6911C176.786 64.6827 182.146 54.108 185.74 58.1765C186.443 58.9319 188.417 57.653 187.714 56.8375C182.635 51.0266 174.74 64.0433 174.953 69.3864C175.094 72.3519 178.193 73.1073 182.286 69.2705C183.906 67.644 185.385 65.7857 186.583 64.0433C185.318 72.9313 192.578 73.9785 199.979 68.631C203.646 65.9616 207.104 62.3008 209.995 59.1035C210.417 58.58 209.641 58.2323 209.146 58.7559ZM202.802 39.0014C206.891 35.4565 209.781 35.2247 207.031 40.6279C204.281 45.9153 198.005 52.8291 190.464 57.8847C192.578 52.2498 197.375 43.8252 202.802 39.0014ZM237.771 58.9319C234.74 61.6013 230.229 65.6698 225.01 68.3435C220.005 70.9571 215.349 71.1288 216.479 66.4251C217.042 64.3351 218.172 62.3008 218.734 60.4425C219.51 57.8847 217.609 57.5929 215.208 60.0906C213.729 61.7773 212.458 63.6355 210.766 65.7857C207.734 69.4465 204.422 71.9442 204.776 68.5152C205.125 64.9703 209.781 57.0693 212.318 59.8589C213.026 60.6142 215.068 59.2795 214.365 58.5242C210.276 54.048 203.365 64.1591 202.516 68.9229C201.953 73.1073 206.958 73.5107 212.318 66.1333C213.656 64.275 215.349 61.6614 216.339 60.4425C217.536 58.8718 217.891 59.4512 217.396 60.5584C216.693 62.009 215.281 64.3909 214.573 66.6569C212.599 72.7553 218.875 73.2789 225.714 69.5623C230.37 67.0646 235.094 62.8802 238.547 59.3353C239.042 58.8117 238.339 58.4641 237.771 58.9319ZM299.464 47.9495C295.302 47.0182 290.651 47.0182 285.714 47.5418C291.99 43.9411 297.276 38.9456 300.026 33.6583C303.766 26.1049 297.698 24.7101 289.802 32.2034C280.776 40.9198 272.599 57.2453 268.578 66.9487C268.297 67.1204 268.089 67.2963 267.875 67.4122C269.641 59.8031 278.099 36.6195 282.469 34.6453C282.542 34.6453 283.599 34.8213 284.021 33.8299C284.375 33.0188 283.318 32.5553 281.766 33.4823C275.349 37.6066 266.604 61.5455 265.198 69.4465C256.667 76.5921 257.229 83.6218 266.323 84.7849C273.448 85.7119 285.359 83.6218 294.807 78.1028C311.661 68.2834 315.891 51.4343 299.464 47.9495ZM267.734 68.983C267.594 69.2705 267.521 69.5623 267.38 69.8542C267.453 69.4465 267.453 69.5623 267.521 69.0988C267.594 69.0388 267.667 69.0388 267.734 68.983ZM293.891 76.8238C285.432 81.7035 274.219 83.9137 267.312 83.0983C259.344 82.2271 259.062 76.9397 264.917 71.3048C264.844 72.1202 264.844 72.9313 264.984 73.6308C265.339 75.3132 267.312 75.605 268.297 73.0472C269.073 71.0129 269.922 68.983 270.766 66.8886C278.594 62.185 287.901 59.567 296.432 58.2924C297.698 58.1165 297.844 56.8375 296.781 57.0135C288.536 58.2924 279.297 60.7902 271.542 65.1462C275.49 56.1423 282.896 40.9198 291.141 32.8428C297.63 26.5684 301.719 27.0319 298.406 33.5982C295.656 38.9456 289.099 44.9282 280.99 48.2413C279.792 48.7649 279.719 50.0996 280.922 49.9237C286.911 48.8808 293.188 48.5289 298.193 49.6361C313.073 52.8291 309.193 67.9916 293.891 76.8238ZM343.104 58.9319C339.859 61.6013 336.125 64.6226 332.458 66.8886C325.828 70.897 319.271 71.7683 320.469 66.3093C320.896 64.5668 322.021 62.3008 323.995 59.8031C325.125 58.58 324.771 58.0607 323.292 58.2323C322.583 58.3482 321.599 58.5242 320.609 58.58C318.427 58.6958 318.635 58.0607 320.12 56.6659C321.385 55.5586 319.552 54.9793 318.495 55.9663C315.677 58.7559 316.031 60.4983 319.979 60.2666C320.682 60.2065 321.177 60.1507 321.74 60.0906C320.26 62.1249 319.062 64.3909 318.495 66.541C316.875 73.6308 324.911 73.2789 333.302 67.8757C337.391 65.2063 340.708 62.185 343.807 59.3353C344.375 58.8718 343.667 58.4641 343.104 58.9319ZM367.708 58.8718C361.714 62.9961 357.063 65.4938 350.151 65.9015C350.786 64.8544 351.208 63.8115 351.562 62.7643C354.312 52.3656 339.297 56.7818 339.083 63.6355C338.38 64.7986 337.885 66.0174 337.672 67.1805C336.755 73.0472 344.302 73.5107 349.026 67.644C356.568 67.1204 361.927 64.451 368.344 59.3954C368.906 58.9319 368.344 58.4641 367.708 58.8718ZM349.87 62.9403C349.589 63.9274 349.167 64.9703 348.531 65.9616C345.427 65.9616 341.693 65.6097 341.479 63.2278C342.188 62.1249 343.453 60.7902 344.865 60.2065C345.781 59.8031 346.135 58.9319 345.427 58.64C348.177 57.653 350.786 59.0478 349.87 62.9403ZM340.141 66.0174C341.62 67.4122 344.443 67.7598 347.193 67.704C343.385 71.8283 338.87 70.4936 340.141 66.0174ZM405.641 58.9319C395.839 65.6698 388.156 65.8458 386.182 64.2149C387.026 62.5326 387.734 60.6743 388.083 58.8117C388.297 57.7088 386.323 57.7088 384.771 59.8589C383.432 61.7172 383.151 63.9832 384.557 65.2063C383.219 67.644 380.542 70.4936 377.719 70.2018C373.844 69.91 378.286 62.9961 378.776 59.8031C379.13 57.8246 377.224 58.0006 375.958 59.5113C373.844 62.185 370.036 70.2576 366.089 70.0859C363.479 70.0258 363.339 65.438 369.047 58.5242C369.964 57.4212 368.13 56.8376 367.214 58.0006C363.406 62.5326 359.385 71.9442 365.24 71.8841C371.516 71.8841 374.266 62.5884 376.802 59.8031C377.37 59.1036 377.651 59.0478 377.438 59.8031C376.734 62.009 370.104 71.9442 377.016 71.7683C380.682 71.7125 383.573 68.7469 385.333 65.7256C388.578 67.4122 397.182 66.3093 406.344 59.3954C406.911 58.9877 406.344 58.4083 405.641 58.9319ZM385.969 60.6743C385.901 61.6013 385.755 62.3566 385.474 63.112C385.333 62.4167 385.474 61.6013 385.969 60.6743ZM439.057 58.8718C434.76 61.9532 430.74 65.0904 427.073 66.6011C419.458 69.7941 419.672 64.7986 419.812 62.009C420.161 55.6187 414.24 56.4298 409.87 61.0777C406.557 64.5668 403.948 69.5023 402.464 70.5494C401.547 68.983 405.5 61.6013 407.26 58.9319C407.964 57.8246 405.99 57.477 405.286 58.64C402.818 62.3008 400.422 67.9916 400.703 70.6653C400.917 72.176 402.396 72.5236 404.297 70.4936C406.062 68.5753 408.458 64.5668 411.208 61.7773C414.453 58.4641 417.625 57.7088 417.411 62.6485C417.344 65.5539 417.766 72.1202 427.427 67.7598C431.724 65.8458 436.026 62.2408 439.693 59.3954C440.328 58.9319 439.693 58.4083 439.057 58.8718Z" stroke="#F6F5F2" stroke-width="5.41504"/>
<path d="M57.5681 82.9233C52.4899 83.9704 64.266 62.4177 66.8754 51.0877C69.3441 39.7577 59.4014 42.1996 51.1514 52.946C46.4274 58.8728 42.1254 67.1213 40.0108 69.0955C39.0941 65.9583 50.1618 45.1609 51.7868 33.4833C52.8441 24.8828 45.5108 24.4193 34.4431 37.4917C22.3129 51.7829 10.3285 76.0094 5.81286 82.1679C6.16702 77.0566 18.5056 47.6028 22.3129 44.1738C22.8076 44.0579 23.3024 43.7661 23.4431 43.3584C23.9326 42.3713 21.9587 41.9636 20.5524 43.8262C15.5472 50.4482 4.47431 74.8506 3.63056 82.228C3.2764 85.3051 5.39098 86.1763 8.56286 81.3568C13.9222 73.2241 25.2764 50.68 35.9222 37.9552C44.0316 28.1358 51.4327 25.2905 49.9535 33.7751C48.3285 43.3584 37.9639 64.3318 38.2504 69.2715C38.391 70.8422 39.7972 71.1898 41.7035 69.1556C43.8181 66.8295 48.4014 59.1045 52.9118 53.4095C61.7295 42.3713 67.1566 43.0708 65.1097 51.2593C62.5733 61.1388 48.2608 86.0605 57.0056 84.7258C58.5524 84.494 59.1201 82.6357 57.5681 82.9233Z" fill="#1D1D1D"/>
<path d="M92.466 58.9286C89.0806 62.1258 84.9191 66.2501 80.6899 68.5161C76.2472 70.8422 71.5233 70.9581 71.7368 66.6578C71.8045 64.1601 73.1431 61.8941 75.1899 59.3963C76.1743 58.2891 74.3462 57.7097 73.4295 58.8127C71.3827 61.2546 69.9035 64.3318 69.6899 67.1213C69.4087 72.8164 75.4035 73.1082 81.3931 69.735C85.9764 67.1814 89.9972 62.8211 93.3097 59.3363C93.8045 58.8127 93.0285 58.4651 92.466 58.9286ZM77.7993 55.3879C77.867 55.3278 78.9972 55.036 79.0702 54.109C79.0702 53.5253 78.4347 53.2378 77.6587 53.4095C76.5285 53.7614 75.966 54.5725 75.5441 55.4437C75.3306 55.9673 75.117 56.4909 75.117 57.0145C75.117 57.478 75.8931 57.4179 76.1743 56.9544C76.5285 56.5467 76.9504 55.9072 77.7993 55.3879Z" fill="#1D1D1D"/>
<path d="M117.775 58.9286C114.53 61.6023 110.795 64.6236 107.129 66.8896C100.499 70.898 93.9413 71.7692 95.1444 66.3102C95.5663 64.5635 96.6913 62.3018 98.6653 59.7998C99.7955 58.581 99.4413 58.0574 97.9622 58.2333C97.259 58.3492 96.2694 58.5252 95.2851 58.581C93.0976 58.6968 93.3111 58.0574 94.7903 56.6626C96.0611 55.5596 94.2278 54.9802 93.1705 55.9673C90.3476 58.7569 90.7017 60.4993 94.6497 60.2676C95.3528 60.2075 95.8476 60.1517 96.4101 60.0916C94.9309 62.1259 93.733 64.3919 93.1705 66.542C91.5455 73.6275 99.5819 73.2799 107.973 67.8767C112.066 65.203 115.379 62.1817 118.478 59.3363C119.045 58.8728 118.337 58.4651 117.775 58.9286Z" fill="#1D1D1D"/>
<path d="M146.402 58.9286C143.366 61.6023 138.855 65.6708 133.637 68.3402C128.631 70.9581 123.98 71.1298 125.105 66.4261C125.668 64.3318 126.798 62.3018 127.361 60.4392C128.137 57.8857 126.236 57.5939 123.84 60.0916C122.355 61.7782 121.09 63.6365 119.397 65.7867C116.366 69.4474 113.048 71.9452 113.402 68.5162C113.756 64.9712 118.407 57.0703 120.944 59.8599C121.652 60.6152 123.694 59.2805 122.991 58.5251C118.902 54.0489 111.991 64.1601 111.147 68.9239C110.579 73.1082 115.59 73.5117 120.944 66.1343C122.288 64.276 123.98 61.6624 124.965 60.4392C126.163 58.8728 126.517 59.4522 126.022 60.5551C125.319 62.01 123.907 64.3919 123.204 66.6579C121.23 72.7563 127.501 73.2799 134.345 69.5633C138.996 67.0656 143.72 62.8812 147.173 59.3363C147.668 58.8127 146.965 58.4651 146.402 58.9286Z" fill="#1D1D1D"/>
<path d="M179.816 58.8728C175.519 61.9499 171.499 65.0871 167.832 66.5978C160.217 69.7951 160.431 64.7996 160.572 62.01C160.92 55.6197 154.999 56.4308 150.629 61.0787C147.316 64.5635 144.707 69.5032 143.228 70.5504C142.311 68.9797 146.259 61.6023 148.019 58.9286C148.723 57.8256 146.749 57.478 146.045 58.641C143.577 62.3018 141.181 67.9926 141.462 70.6663C141.676 72.1769 143.155 72.5246 145.056 70.4903C146.822 68.5762 149.217 64.5635 151.967 61.7782C155.212 58.4651 158.384 57.7097 158.17 62.6494C158.103 65.5549 158.525 72.1169 168.186 67.7608C172.488 65.8424 176.785 62.2417 180.452 59.3964C181.087 58.9286 180.452 58.4093 179.816 58.8728Z" fill="#1D1D1D"/>
<path d="M209.146 58.7569C206.396 61.6623 202.589 65.3789 199.063 67.7608C192.157 72.3529 186.516 70.6663 189.615 60.2676C194.131 57.5938 204.214 48.7616 208.511 40.7448C212.318 33.4232 206.75 33.891 201.605 38.3071C194.907 43.9978 189.193 54.2249 187.219 61.0787C186.516 62.01 183.344 66.2501 180.803 68.5161C178.761 70.4345 177.349 70.7821 177.209 68.6921C176.787 64.6837 182.141 54.109 185.74 58.1732C186.443 58.9286 188.417 57.6539 187.714 56.8385C182.636 51.0276 174.74 64.0442 174.954 69.3873C175.094 72.3529 178.193 73.1082 182.282 69.2715C183.907 67.6449 185.386 65.7866 186.584 64.0442C185.318 72.9323 192.579 73.9794 199.98 68.632C203.646 65.9583 207.105 62.3018 209.995 59.1045C210.417 58.5809 209.641 58.2333 209.146 58.7569ZM202.803 39.0023C206.891 35.4574 209.782 35.2257 207.032 40.6289C204.282 45.9162 198.006 52.8301 190.464 57.8857C192.579 52.2507 197.375 43.8262 202.803 39.0023Z" fill="#1D1D1D"/>
<path d="M237.775 58.9286C234.738 61.6023 230.228 65.6708 225.009 68.3402C220.004 70.9581 215.353 71.1298 216.478 66.4261C217.04 64.3318 218.17 62.3018 218.733 60.4392C219.509 57.8857 217.608 57.5939 215.212 60.0916C213.728 61.7782 212.462 63.6365 210.769 65.7867C207.738 69.4474 204.42 71.9452 204.775 68.5162C205.129 64.9712 209.78 57.0703 212.316 59.8599C213.025 60.6152 215.066 59.2805 214.363 58.5251C210.275 54.0489 203.363 64.1601 202.519 68.9239C201.952 73.1082 206.962 73.5117 212.316 66.1343C213.66 64.276 215.353 61.6624 216.337 60.4392C217.535 58.8728 217.889 59.4522 217.394 60.5551C216.691 62.01 215.28 64.3919 214.577 66.6579C212.603 72.7563 218.873 73.2799 225.717 69.5633C230.368 67.0656 235.092 62.8812 238.545 59.3363C239.04 58.8127 238.337 58.4651 237.775 58.9286Z" fill="#1D1D1D"/>
<path d="M299.462 47.9505C295.301 47.0192 290.65 47.0192 285.712 47.5428C291.988 43.9421 297.28 38.9423 300.03 33.6592C303.764 26.1059 297.702 24.7111 289.806 32.2044C280.78 40.9207 272.597 57.2462 268.582 66.9497C268.301 67.1214 268.087 67.2973 267.873 67.4132C269.639 59.7998 278.097 36.6205 282.472 34.6463C282.54 34.6463 283.597 34.818 284.019 33.8309C284.373 33.0198 283.316 32.552 281.764 33.4833C275.347 37.6076 266.608 61.5465 265.196 69.4474C256.665 76.5931 257.228 83.6228 266.327 84.7859C273.446 85.7129 285.363 83.6228 294.811 78.1037C311.66 68.2844 315.889 51.4353 299.462 47.9505ZM267.733 68.9796C267.592 69.2715 267.525 69.5633 267.384 69.8509C267.452 69.4474 267.452 69.5633 267.525 69.0955C267.592 69.0397 267.665 69.0397 267.733 68.9796ZM293.894 76.8248C285.431 81.7044 274.222 83.9104 267.311 83.0992C259.342 82.228 259.061 76.9407 264.915 71.3057C264.842 72.1169 264.842 72.9323 264.983 73.6275C265.337 75.3141 267.311 75.606 268.301 73.0481C269.077 71.0139 269.92 68.9796 270.764 66.8896C278.592 62.1816 287.9 59.568 296.431 58.2891C297.702 58.1174 297.842 56.8385 296.785 57.0145C288.535 58.2891 279.295 60.7911 271.54 65.1472C275.488 56.1433 282.894 40.9207 291.144 32.8438C297.629 26.5694 301.717 27.0329 298.405 33.5991C295.655 38.9423 289.097 44.9291 280.988 48.238C279.79 48.7616 279.722 50.1006 280.92 49.9246C286.915 48.8775 293.186 48.5299 298.196 49.6328C313.071 52.8301 309.191 67.9926 293.894 76.8248Z" fill="#1D1D1D"/>
<path d="M343.103 58.9286C339.858 61.6023 336.124 64.6236 332.457 66.8896C325.827 70.898 319.27 71.7692 320.473 66.3102C320.895 64.5635 322.02 62.3018 323.994 59.7998C325.124 58.581 324.77 58.0574 323.291 58.2333C322.587 58.3492 321.598 58.5252 320.613 58.581C318.426 58.6968 318.639 58.0574 320.119 56.6626C321.389 55.5596 319.556 54.9802 318.499 55.9673C315.676 58.7569 316.03 60.4993 319.978 60.2676C320.681 60.2075 321.176 60.1517 321.738 60.0916C320.259 62.1259 319.061 64.3919 318.499 66.542C316.874 73.6275 324.91 73.2799 333.301 67.8767C337.395 65.203 340.707 62.1817 343.806 59.3363C344.374 58.8728 343.666 58.4651 343.103 58.9286Z" fill="#1D1D1D"/>
<path d="M367.71 58.8728C361.715 62.9971 357.064 65.4948 350.153 65.9025C350.788 64.8553 351.21 63.8125 351.564 62.7653C354.314 52.3666 339.293 56.7784 339.085 63.6365C338.377 64.7996 337.887 66.0184 337.673 67.1814C336.757 73.0481 344.298 73.5116 349.022 67.6449C356.569 67.1213 361.929 64.4476 368.345 59.3963C368.908 58.9286 368.345 58.4651 367.71 58.8728ZM349.871 62.937C349.59 63.9283 349.168 64.9712 348.533 65.9583C345.429 65.9583 341.694 65.6107 341.481 63.2288C342.184 62.1258 343.455 60.7911 344.866 60.2075C345.783 59.7998 346.132 58.9286 345.429 58.641C348.179 57.6539 350.788 59.0444 349.871 62.937ZM340.142 66.0184C341.621 67.4132 344.444 67.7608 347.189 67.705C343.382 71.8293 338.871 70.4903 340.142 66.0184Z" fill="#1D1D1D"/>
<path d="M405.643 58.9286C395.841 65.6708 388.153 65.8424 386.179 64.2159C387.028 62.5336 387.731 60.671 388.086 58.8127C388.294 57.7097 386.32 57.7097 384.773 59.8598C383.429 61.7181 383.148 63.9841 384.56 65.203C383.221 67.6449 380.539 70.4903 377.721 70.2028C373.841 69.9109 378.283 62.9971 378.778 59.7998C379.132 57.8256 377.226 58.0016 375.955 59.5122C373.841 62.1816 370.033 70.2586 366.086 70.0869C363.476 70.0268 363.336 65.439 369.049 58.5251C369.966 57.4179 368.132 56.8385 367.216 58.0016C363.408 62.5336 359.388 71.9452 365.242 71.8851C371.513 71.8851 374.263 62.5893 376.804 59.7998C377.367 59.1045 377.648 59.0444 377.44 59.7998C376.731 62.01 370.106 71.9452 377.013 71.7692C380.679 71.7134 383.57 68.7479 385.336 65.7266C388.58 67.4132 397.179 66.3102 406.346 59.3963C406.908 58.9886 406.346 58.4093 405.643 58.9286ZM385.971 60.671C385.898 61.6023 385.757 62.3576 385.476 63.1129C385.336 62.4177 385.476 61.6023 385.971 60.671Z" fill="#1D1D1D"/>
<path d="M439.057 58.8728C434.76 61.9499 430.739 65.0871 427.072 66.5978C419.458 69.7951 419.671 64.7996 419.812 62.01C420.161 55.6197 414.239 56.4308 409.869 61.0787C406.557 64.5635 403.947 69.5032 402.468 70.5504C401.552 68.9797 405.499 61.6023 407.26 58.9286C407.963 57.8256 405.989 57.478 405.286 58.641C402.817 62.3018 400.421 67.9926 400.703 70.6663C400.916 72.1769 402.395 72.5246 404.296 70.4903C406.062 68.5762 408.458 64.5635 411.208 61.7782C414.453 58.4651 417.624 57.7097 417.411 62.6494C417.343 65.5549 417.765 72.1169 427.427 67.7608C431.729 65.8424 436.026 62.2417 439.692 59.3964C440.328 58.9286 439.692 58.4093 439.057 58.8728Z" fill="#1D1D1D"/>
<path d="M144.181 154.477C142.707 154.477 141.561 154.134 140.743 153.447C139.92 152.752 139.514 151.756 139.514 150.46V145.293H141.077V150.409C141.077 152.357 142.108 153.327 144.181 153.327C145.191 153.327 145.962 153.087 146.493 152.606C147.035 152.125 147.306 151.396 147.306 150.409V145.293H148.827V150.46C148.827 151.765 148.415 152.76 147.597 153.447C146.774 154.134 145.639 154.477 144.181 154.477Z" fill="#1D1D1D"/>
<path d="M161.356 154.374L158.043 150.632L154.793 154.374H152.981L157.127 149.722L153.231 145.293H155.023L158.106 148.778L161.168 145.293H162.877L159.002 149.67L163.168 154.374H161.356Z" fill="#1D1D1D"/>
<path d="M170.485 143.439H171.86L166.673 155.679H165.298L170.485 143.439Z" fill="#1D1D1D"/>
<path d="M179.871 154.477C178.397 154.477 177.251 154.134 176.434 153.447C175.611 152.752 175.205 151.756 175.205 150.46V145.293H176.767V150.409C176.767 152.357 177.798 153.327 179.871 153.327C180.882 153.327 181.653 153.087 182.184 152.606C182.725 152.125 182.996 151.396 182.996 150.409V145.293H184.517V150.46C184.517 151.765 184.106 152.76 183.288 153.447C182.465 154.134 181.33 154.477 179.871 154.477Z" fill="#1D1D1D"/>
<path d="M190.109 145.293H191.692V154.374H190.109V145.293Z" fill="#1D1D1D"/>
<path d="M203.954 145.293H208.6C209.767 145.293 210.798 145.482 211.704 145.859C212.605 146.237 213.308 146.778 213.808 147.473C214.308 148.16 214.558 148.945 214.558 149.825C214.558 150.718 214.308 151.507 213.808 152.194C213.308 152.881 212.605 153.421 211.704 153.808C210.798 154.185 209.767 154.374 208.6 154.374H203.954V145.293ZM208.517 153.241C209.402 153.241 210.189 153.1 210.871 152.812C211.548 152.529 212.069 152.125 212.433 151.61C212.808 151.095 212.996 150.503 212.996 149.825C212.996 149.151 212.808 148.555 212.433 148.04C212.069 147.525 211.548 147.13 210.871 146.855C210.189 146.572 209.402 146.426 208.517 146.426H205.538V153.241H208.517Z" fill="#1D1D1D"/>
<path d="M227.326 153.241V154.374H219.326V145.293H227.118V146.426H220.91V149.207H226.431V150.306H220.91V153.241H227.326Z" fill="#1D1D1D"/>
<path d="M235.471 154.477C234.638 154.477 233.83 154.374 233.054 154.168C232.289 153.954 231.684 153.679 231.242 153.344L231.825 152.331C232.242 152.64 232.773 152.894 233.429 153.087C234.096 153.284 234.773 153.379 235.471 153.379C236.372 153.379 237.044 153.254 237.492 153.001C237.95 152.739 238.179 152.396 238.179 151.971C238.179 151.662 238.054 151.413 237.804 151.216C237.565 151.022 237.268 150.872 236.908 150.769C236.544 150.666 236.033 150.546 235.367 150.409C234.533 150.25 233.856 150.091 233.346 149.928C232.846 149.756 232.414 149.507 232.054 149.173C231.69 148.829 231.513 148.366 231.513 147.782C231.513 147.302 231.664 146.868 231.971 146.478C232.273 146.091 232.742 145.782 233.367 145.551C234.002 145.31 234.789 145.19 235.721 145.19C236.372 145.19 237.013 145.259 237.638 145.396C238.273 145.533 238.825 145.735 239.283 145.997L238.763 147.027C238.289 146.787 237.789 146.606 237.263 146.478C236.747 146.353 236.231 146.289 235.721 146.289C234.83 146.289 234.164 146.426 233.721 146.701C233.273 146.967 233.054 147.31 233.054 147.731C233.054 148.04 233.179 148.293 233.429 148.486C233.679 148.683 233.992 148.838 234.367 148.95C234.742 149.053 235.247 149.168 235.888 149.293C236.721 149.456 237.388 149.619 237.888 149.791C238.388 149.954 238.815 150.203 239.179 150.546C239.539 150.881 239.721 151.331 239.721 151.902C239.721 152.374 239.559 152.808 239.242 153.207C238.934 153.597 238.46 153.906 237.825 154.134C237.184 154.366 236.398 154.477 235.471 154.477Z" fill="#1D1D1D"/>
<path d="M244.385 145.293H245.969V154.374H244.385V145.293Z" fill="#1D1D1D"/>
<path d="M259.277 149.774H260.797V153.327C260.24 153.696 259.6 153.979 258.881 154.185C258.157 154.378 257.402 154.477 256.61 154.477C255.495 154.477 254.495 154.28 253.61 153.876C252.719 153.477 252.016 152.928 251.506 152.228C250.99 151.52 250.735 150.718 250.735 149.825C250.735 148.945 250.99 148.151 251.506 147.439C252.016 146.731 252.719 146.181 253.61 145.791C254.511 145.392 255.527 145.19 256.652 145.19C257.527 145.19 258.324 145.31 259.047 145.551C259.766 145.782 260.381 146.126 260.881 146.581L259.902 147.387C259.027 146.692 257.964 146.34 256.714 146.34C255.865 146.34 255.11 146.49 254.443 146.787C253.777 147.087 253.256 147.503 252.881 148.04C252.506 148.568 252.318 149.164 252.318 149.825C252.318 150.49 252.506 151.091 252.881 151.628C253.256 152.155 253.777 152.572 254.443 152.881C255.11 153.181 255.86 153.327 256.693 153.327C257.678 153.327 258.537 153.134 259.277 152.743V149.774Z" fill="#1D1D1D"/>
<path d="M275.632 145.293V154.374H274.34L267.736 147.593V154.374H266.153V145.293H267.444L274.069 152.057V145.293H275.632Z" fill="#1D1D1D"/>
<path d="M289.304 153.241V154.374H281.304V145.293H289.096V146.426H282.888V149.207H288.408V150.306H282.888V153.241H289.304Z" fill="#1D1D1D"/>
<path d="M301.594 154.374L299.219 151.576C298.928 151.602 298.699 151.61 298.532 151.61H295.803V154.374H294.219V145.293H298.532C299.959 145.293 301.084 145.576 301.907 146.134C302.725 146.696 303.136 147.469 303.136 148.452C303.136 149.164 302.917 149.765 302.49 150.254C302.074 150.748 301.475 151.104 300.699 151.318L303.324 154.374H301.594ZM298.469 150.512C299.469 150.512 300.23 150.336 300.761 149.979C301.287 149.628 301.553 149.117 301.553 148.452C301.553 147.799 301.287 147.301 300.761 146.958C300.23 146.606 299.469 146.426 298.469 146.426H295.803V150.512H298.469Z" fill="#1D1D1D"/>
</svg>
