<svg xmlns="http://www.w3.org/2000/svg" xmlns:xlink="http://www.w3.org/1999/xlink" width="500" zoomAndPan="magnify" viewBox="0 0 375 374.999991" height="500" preserveAspectRatio="xMidYMid meet" version="1.0"><defs><g/></defs><g fill="#1e2148" fill-opacity="1"><g transform="translate(70.031675, 239.156739)"><g><path d="M 139.890625 -116.390625 L 139.890625 -113.09375 C 136.171875 -112.988281 133.378906 -112.578125 131.515625 -111.859375 C 129.648438 -111.148438 128.414062 -109.835938 127.8125 -107.921875 C 127.207031 -106.003906 126.90625 -103.019531 126.90625 -98.96875 L 126.90625 -17.421875 C 126.90625 -13.472656 127.207031 -10.515625 127.8125 -8.546875 C 128.414062 -6.578125 129.648438 -5.257812 131.515625 -4.59375 C 133.378906 -3.9375 136.171875 -3.5 139.890625 -3.28125 L 139.890625 0 C 137.148438 -0.21875 133.753906 -0.351562 129.703125 -0.40625 C 125.648438 -0.46875 121.539062 -0.5 117.375 -0.5 C 112.769531 -0.5 108.441406 -0.46875 104.390625 -0.40625 C 100.335938 -0.351562 97.101562 -0.21875 94.6875 0 L 94.6875 -3.28125 C 98.414062 -3.5 101.238281 -3.9375 103.15625 -4.59375 C 105.070312 -5.257812 106.359375 -6.578125 107.015625 -8.546875 C 107.671875 -10.515625 108 -13.472656 108 -17.421875 L 108 -107.34375 L 108.828125 -107.015625 L 68.390625 0.65625 L 65.75 0.65625 L 23.34375 -105.875 L 23.34375 -21.703125 C 23.34375 -17.097656 23.671875 -13.503906 24.328125 -10.921875 C 24.984375 -8.347656 26.40625 -6.515625 28.59375 -5.421875 C 30.789062 -4.328125 34.132812 -3.613281 38.625 -3.28125 L 38.625 0 C 36.550781 -0.21875 33.894531 -0.351562 30.65625 -0.40625 C 27.425781 -0.46875 24.382812 -0.5 21.53125 -0.5 C 18.789062 -0.5 16.050781 -0.46875 13.3125 -0.40625 C 10.570312 -0.351562 8.328125 -0.21875 6.578125 0 L 6.578125 -3.28125 C 10.191406 -3.613281 12.929688 -4.300781 14.796875 -5.34375 C 16.660156 -6.382812 17.921875 -8.164062 18.578125 -10.6875 C 19.234375 -13.207031 19.5625 -16.660156 19.5625 -21.046875 L 19.5625 -98.96875 C 19.5625 -103.019531 19.234375 -106.003906 18.578125 -107.921875 C 17.921875 -109.835938 16.660156 -111.148438 14.796875 -111.859375 C 12.929688 -112.578125 10.191406 -112.988281 6.578125 -113.09375 L 6.578125 -116.390625 C 8.328125 -116.273438 10.570312 -116.160156 13.3125 -116.046875 C 16.050781 -115.941406 18.789062 -115.890625 21.53125 -115.890625 C 24.707031 -115.890625 27.910156 -115.941406 31.140625 -116.046875 C 34.378906 -116.160156 37.148438 -116.273438 39.453125 -116.390625 L 75.78125 -23.015625 L 72.65625 -20.875 L 108.328125 -115.890625 C 109.753906 -115.890625 111.234375 -115.890625 112.765625 -115.890625 C 114.304688 -115.890625 115.84375 -115.890625 117.375 -115.890625 C 121.539062 -115.890625 125.648438 -115.941406 129.703125 -116.046875 C 133.753906 -116.160156 137.148438 -116.273438 139.890625 -116.390625 Z M 139.890625 -116.390625 "/></g></g></g><g fill="#1e2148" fill-opacity="1"><g transform="translate(199.899619, 239.156739)"><g><path d="M 6.40625 -116.390625 C 8.925781 -116.273438 12.1875 -116.160156 16.1875 -116.046875 C 20.1875 -115.941406 24.160156 -115.890625 28.109375 -115.890625 C 33.367188 -115.890625 38.378906 -115.941406 43.140625 -116.046875 C 47.910156 -116.160156 51.285156 -116.21875 53.265625 -116.21875 C 65.535156 -116.21875 74.710938 -113.804688 80.796875 -108.984375 C 86.878906 -104.160156 89.921875 -97.972656 89.921875 -90.421875 C 89.921875 -86.578125 89.015625 -82.765625 87.203125 -78.984375 C 85.398438 -75.203125 82.46875 -71.804688 78.40625 -68.796875 C 74.351562 -65.785156 68.984375 -63.398438 62.296875 -61.640625 L 62.296875 -61.3125 C 71.503906 -60.332031 78.738281 -58.363281 84 -55.40625 C 89.257812 -52.445312 92.984375 -48.910156 95.171875 -44.796875 C 97.367188 -40.679688 98.46875 -36.378906 98.46875 -31.890625 C 98.46875 -25.421875 96.820312 -19.800781 93.53125 -15.03125 C 90.25 -10.269531 85.507812 -6.570312 79.3125 -3.9375 C 73.125 -1.3125 65.703125 0 57.046875 0 C 54.628906 0 50.984375 -0.0820312 46.109375 -0.25 C 41.234375 -0.414062 35.34375 -0.5 28.4375 -0.5 C 24.269531 -0.5 20.1875 -0.46875 16.1875 -0.40625 C 12.1875 -0.351562 8.925781 -0.21875 6.40625 0 L 6.40625 -3.28125 C 10.132812 -3.5 12.929688 -3.9375 14.796875 -4.59375 C 16.660156 -5.257812 17.890625 -6.578125 18.484375 -8.546875 C 19.085938 -10.515625 19.390625 -13.472656 19.390625 -17.421875 L 19.390625 -98.96875 C 19.390625 -103.019531 19.085938 -106.003906 18.484375 -107.921875 C 17.890625 -109.835938 16.632812 -111.148438 14.71875 -111.859375 C 12.800781 -112.578125 10.03125 -112.988281 6.40625 -113.09375 Z M 49.8125 -113.09375 C 45.09375 -113.09375 41.992188 -112.160156 40.515625 -110.296875 C 39.035156 -108.441406 38.296875 -104.664062 38.296875 -98.96875 L 38.296875 -17.421875 C 38.296875 -13.585938 38.625 -10.679688 39.28125 -8.703125 C 39.945312 -6.734375 41.128906 -5.421875 42.828125 -4.765625 C 44.523438 -4.109375 47.015625 -3.78125 50.296875 -3.78125 C 60.160156 -3.78125 67.3125 -6.269531 71.75 -11.25 C 76.195312 -16.238281 78.421875 -23.335938 78.421875 -32.546875 C 78.421875 -40.984375 76.195312 -47.503906 71.75 -52.109375 C 67.3125 -56.710938 60 -59.015625 49.8125 -59.015625 L 33.859375 -59.015625 C 33.859375 -59.015625 33.859375 -59.476562 33.859375 -60.40625 C 33.859375 -61.34375 33.859375 -61.8125 33.859375 -61.8125 L 48 -61.8125 C 54.03125 -61.8125 58.6875 -63.039062 61.96875 -65.5 C 65.257812 -67.96875 67.507812 -71.253906 68.71875 -75.359375 C 69.925781 -79.472656 70.53125 -83.890625 70.53125 -88.609375 C 70.53125 -96.710938 68.9375 -102.816406 65.75 -106.921875 C 62.570312 -111.035156 57.257812 -113.09375 49.8125 -113.09375 Z M 49.8125 -113.09375 "/></g></g></g><path stroke-linecap="butt" transform="matrix(0.75, 0, 0, 0.75, 16.754163, 101.582917)" fill="none" stroke-linejoin="miter" d="M 64.228829 127.816536 C 59.150703 129.082161 70.926746 102.92591 73.536121 89.175909 C 76.004871 75.425908 66.062162 78.38945 57.812162 91.431117 C 53.088203 98.623826 48.786119 108.634243 46.671536 111.035285 C 45.754869 107.227993 56.827787 81.9832 58.447578 67.811324 C 59.50487 57.379032 52.171536 56.811323 41.103827 72.675908 C 28.973618 90.019659 16.989242 119.425911 12.473617 126.89987 C 12.827784 120.691536 25.166326 84.946742 28.973618 80.785283 C 29.46841 80.644658 29.963201 80.290492 30.103826 79.800908 C 30.598618 78.597783 28.62466 78.1082 27.213201 80.363408 C 22.207993 88.399867 11.135075 118.014452 10.291325 126.967578 C 9.937158 130.707162 12.051742 131.764453 15.223617 125.910286 C 20.582992 116.040494 31.93716 88.681117 42.582994 73.243616 C 50.692369 61.326949 58.093412 57.868615 56.614245 68.165491 C 54.994453 79.800908 44.629869 105.254035 44.911119 111.243619 C 45.051744 113.149869 46.457994 113.571744 48.364244 111.102994 C 50.478828 108.285285 55.062161 98.905076 59.572578 91.998826 C 68.390287 78.597783 73.817371 79.446742 71.770496 89.38945 C 69.234037 101.373826 54.921536 131.623828 63.666329 129.998828 C 65.213204 129.717578 65.780912 127.46237 64.228829 127.816536 Z M 99.124664 98.696743 C 95.739247 102.571743 91.582997 107.576952 87.348622 110.326952 C 82.911122 113.149869 78.181955 113.290494 78.395496 108.071743 C 78.468413 105.040493 79.806955 102.290493 81.848621 99.259243 C 82.838205 97.920701 81.004871 97.212368 80.088205 98.550909 C 78.04133 101.514451 76.562163 105.254035 76.353829 108.634243 C 76.067371 115.545702 82.062163 115.899869 88.056955 111.811327 C 92.640289 108.70716 96.655914 103.420701 99.973623 99.186326 C 100.463206 98.550909 99.687164 98.129034 99.124664 98.696743 Z M 84.249663 94.535284 C 84.249663 94.535284 84.249663 94.535284 84.317372 94.535284 C 84.249663 94.535284 84.249663 94.535284 84.249663 94.535284 Z M 84.457997 94.394659 C 84.530913 94.321742 85.655913 93.972784 85.72883 92.842576 C 85.72883 92.139451 85.093413 91.785284 84.317372 91.998826 C 83.192372 92.420701 82.624663 93.405076 82.202788 94.462367 C 81.994455 95.097784 81.780913 95.733201 81.780913 96.368618 C 81.780913 96.931118 82.556955 96.863409 82.838205 96.295701 C 83.192372 95.806118 83.614247 95.030076 84.457997 94.394659 Z M 124.437166 98.696743 C 121.192374 101.936326 117.457999 105.602993 113.791332 108.352993 C 107.161123 113.217577 100.603831 114.274869 101.801748 107.649868 C 102.228831 105.535285 103.353831 102.785285 105.32779 99.754035 C 106.457998 98.269659 106.103831 97.639451 104.624665 97.847784 C 103.916331 97.988409 102.931956 98.201951 101.942373 98.269659 C 99.760081 98.410284 99.968414 97.639451 101.452789 95.946743 C 102.718415 94.602993 100.885081 93.899867 99.827789 95.097784 C 97.010081 98.483201 97.359039 100.597785 101.312164 100.316535 C 102.015289 100.243618 102.510081 100.17591 103.072581 100.102993 C 101.593414 102.571743 100.395498 105.321743 99.827789 107.931118 C 98.207998 116.535286 106.244456 116.108202 114.635082 109.55091 C 118.723624 106.311327 122.041332 102.64466 125.140291 99.186326 C 125.707999 98.623826 124.999666 98.129034 124.437166 98.696743 Z M 153.062168 98.696743 C 150.030918 101.936326 145.515292 106.873827 140.296542 110.118619 C 135.291333 113.290494 130.640291 113.498827 131.765291 107.790493 C 132.333 105.254035 133.458 102.785285 134.025708 100.530076 C 134.80175 97.425909 132.8955 97.071743 130.499666 100.102993 C 129.015291 102.149868 127.749666 104.405076 126.056958 107.014452 C 123.025708 111.45716 119.713207 114.48841 120.062166 110.326952 C 120.416332 106.024868 125.067374 96.436326 127.609041 99.821743 C 128.312166 100.73841 130.359041 99.118618 129.650708 98.201951 C 125.562166 92.769659 118.650707 105.040493 117.806957 110.821744 C 117.244457 115.899869 122.249666 116.389452 127.609041 107.436327 C 128.947583 105.181118 130.640291 102.009243 131.624666 100.530076 C 132.827791 98.623826 133.17675 99.326951 132.681958 100.670701 C 131.978833 102.431118 130.567375 105.321743 129.86425 108.071743 C 127.890291 115.472786 134.166333 116.108202 141.004875 111.597785 C 145.655917 108.566535 150.379876 103.48841 153.83821 99.186326 C 154.327793 98.550909 153.624668 98.129034 153.062168 98.696743 Z M 186.478837 98.623826 C 182.176753 102.36341 178.161128 106.170702 174.494461 108.004035 C 166.879877 111.879035 167.08821 105.816535 167.228835 102.431118 C 167.583002 94.675909 161.661127 95.660284 157.291335 101.30091 C 153.973626 105.535285 151.369459 111.524869 149.885084 112.795702 C 148.968418 110.89466 152.916334 101.936326 154.68196 98.696743 C 155.385085 97.352993 153.411126 96.931118 152.708001 98.342576 C 150.239251 102.785285 147.843417 109.691535 148.124668 112.936327 C 148.333001 114.76966 149.817376 115.191536 151.718418 112.727994 C 153.484043 110.399869 155.879876 105.535285 158.629877 102.149868 C 161.874668 98.129034 165.046544 97.212368 164.833002 103.20716 C 164.765294 106.733202 165.187169 114.701952 174.843419 109.410285 C 179.145503 107.087368 183.447586 102.712368 187.114253 99.259243 C 187.74967 98.696743 187.114253 98.061326 186.478837 98.623826 Z M 215.806964 98.483201 C 213.056963 102.009243 209.249672 106.51966 205.728838 109.410285 C 198.817379 114.983202 193.176754 112.936327 196.275712 100.316535 C 200.791338 97.071743 210.874672 86.3582 215.176755 76.623825 C 218.984047 67.743616 213.41113 68.306116 208.265296 73.665491 C 201.567379 80.571742 195.853837 92.983201 193.879879 101.30091 C 193.176754 102.431118 190.004879 107.576952 187.463212 110.326952 C 185.421545 112.655077 184.010087 113.076952 183.869462 110.540494 C 183.447586 105.67591 188.806962 92.842576 192.400712 97.780076 C 193.103837 98.696743 195.077796 97.144659 194.374671 96.155076 C 189.296545 89.102992 181.400711 104.899868 181.614253 111.384244 C 181.754878 114.983202 184.853837 115.899869 188.947587 111.243619 C 190.567379 109.26966 192.046545 107.014452 193.244462 104.899868 C 191.978837 115.686327 199.239254 116.957161 206.640296 110.467577 C 210.306963 107.227993 213.765297 102.785285 216.655922 98.905076 C 217.077797 98.269659 216.301755 97.847784 215.806964 98.483201 Z M 209.463213 74.509241 C 213.551755 70.207158 216.44238 69.925908 213.69238 76.4832 C 210.94238 82.899867 204.666338 91.290492 197.124671 97.425909 C 199.239254 90.587367 204.03613 80.363408 209.463213 74.509241 Z M 244.431965 98.696743 C 241.400715 101.936326 236.890298 106.873827 231.671548 110.118619 C 226.666339 113.290494 222.010089 113.498827 223.140297 107.790493 C 223.702797 105.254035 224.833006 102.785285 225.395506 100.530076 C 226.171548 97.425909 224.270506 97.071743 221.869464 100.102993 C 220.390297 102.149868 219.119464 104.405076 217.426755 107.014452 C 214.395505 111.45716 211.083005 114.48841 211.437172 110.326952 C 211.78613 106.024868 216.44238 96.436326 218.978839 99.821743 C 219.687172 100.73841 221.728839 99.118618 221.025714 98.201951 C 216.937172 92.769659 210.025713 105.040493 209.176755 110.821744 C 208.614255 115.899869 213.619463 116.389452 218.978839 107.436327 C 220.317381 105.181118 222.010089 102.009243 222.999672 100.530076 C 224.197589 98.623826 224.551756 99.326951 224.056964 100.670701 C 223.353839 102.431118 221.942381 105.321743 221.234047 108.071743 C 219.260089 115.472786 225.536131 116.108202 232.374673 111.597785 C 237.030923 108.566535 241.754882 103.48841 245.208007 99.186326 C 245.702799 98.550909 244.999674 98.129034 244.431965 98.696743 Z M 306.124678 85.368617 C 301.963219 84.238408 297.312177 84.238408 292.374677 84.873825 C 298.650719 80.504033 303.937178 74.441533 306.687178 68.024866 C 310.426761 58.858198 304.359053 57.16549 296.463219 66.259241 C 287.437177 76.837366 279.260093 96.649868 275.239259 108.42591 C 274.958009 108.634243 274.749676 108.847785 274.536134 108.98841 C 276.301759 99.754035 284.760093 71.618616 289.129885 69.222783 C 289.202802 69.222783 290.260094 69.436324 290.681969 68.233199 C 291.036135 67.248824 289.978843 66.686324 288.42676 67.811324 C 282.010093 72.816533 273.265301 101.868618 271.859051 111.45716 C 263.3278 120.129036 263.8903 128.660286 272.984051 130.071745 C 280.109051 131.196745 292.02051 128.660286 301.468428 121.962369 C 318.322595 110.045702 322.551762 89.597784 306.124678 85.368617 Z M 274.395509 110.89466 C 274.254884 111.243619 274.181967 111.597785 274.041342 111.951952 C 274.114259 111.45716 274.114259 111.597785 274.181967 111.035285 C 274.254884 110.962369 274.327801 110.962369 274.395509 110.89466 Z M 300.551761 120.410286 C 292.093427 126.332161 280.879885 129.014453 273.973634 128.02487 C 266.004884 126.967578 265.723634 120.550911 271.577801 113.712369 C 271.504884 114.701952 271.504884 115.686327 271.645509 116.535286 C 271.999676 118.576952 273.973634 118.931119 274.958009 115.826952 C 275.734051 113.358202 276.583009 110.89466 277.426759 108.352993 C 285.254885 102.64466 294.562177 99.467576 303.093428 97.920701 C 304.359053 97.707159 304.504886 96.155076 303.442386 96.368618 C 295.197594 97.920701 285.95801 100.951951 278.202801 106.23841 C 282.150718 95.311326 289.556968 76.837366 297.801761 67.035282 C 304.291344 59.420699 308.379886 59.983199 305.067386 67.951949 C 302.317386 74.441533 295.760094 81.70195 287.650718 85.722784 C 286.452802 86.3582 286.379885 87.977992 287.58301 87.76445 C 293.572594 86.498825 299.848636 86.071742 304.853844 87.415492 C 319.734054 91.290492 315.853845 109.691535 300.551761 120.410286 Z M 349.765306 98.696743 C 346.520514 101.936326 342.786139 105.602993 339.119472 108.352993 C 332.489263 113.217577 325.931971 114.274869 327.129888 107.649868 C 327.556971 105.535285 328.681971 102.785285 330.655929 99.754035 C 331.786138 98.269659 331.431971 97.639451 329.952804 97.847784 C 329.244471 97.988409 328.260096 98.201951 327.270513 98.269659 C 325.088221 98.410284 325.296554 97.639451 326.780929 95.946743 C 328.046554 94.602993 326.213221 93.899867 325.155929 95.097784 C 322.338221 98.483201 322.692387 100.597785 326.640304 100.316535 C 327.343429 100.243618 327.838221 100.17591 328.400721 100.102993 C 326.921554 102.571743 325.723637 105.321743 325.155929 107.931118 C 323.536137 116.535286 331.572596 116.108202 339.963222 109.55091 C 344.051764 106.311327 347.369472 102.64466 350.468431 99.186326 C 351.036139 98.623826 350.327806 98.129034 349.765306 98.696743 Z M 374.369474 98.623826 C 368.374682 103.629035 363.72364 106.660285 356.812181 107.155077 C 357.447598 105.884243 357.869473 104.618618 358.22364 103.347785 C 360.97364 90.727992 345.958014 96.087368 345.744472 104.405076 C 345.041347 105.816535 344.546555 107.295702 344.333014 108.70716 C 343.416347 115.826952 350.963222 116.389452 355.687181 109.26966 C 363.228848 108.634243 368.588224 105.39466 375.004891 99.259243 C 375.567391 98.696743 375.004891 98.129034 374.369474 98.623826 Z M 356.530931 103.561326 C 356.249681 104.759243 355.827806 106.024868 355.192389 107.227993 C 352.088223 107.227993 348.353847 106.80091 348.140306 103.910285 C 348.848639 102.571743 350.114264 100.951951 351.525723 100.243618 C 352.442389 99.754035 352.796556 98.696743 352.088223 98.342576 C 354.838223 97.144659 357.447598 98.837368 356.530931 103.561326 Z M 346.801764 107.295702 C 348.280931 108.98841 351.103847 109.410285 353.853848 109.342577 C 350.046556 114.347785 345.53093 112.727994 346.801764 107.295702 Z M 412.301768 98.696743 C 402.499684 106.873827 394.817392 107.087368 392.843434 105.108202 C 393.687184 103.066535 394.395517 100.811326 394.744475 98.550909 C 394.958017 97.212368 392.984059 97.212368 391.431975 99.821743 C 390.093433 102.076951 389.812183 104.826952 391.218433 106.311327 C 389.879892 109.26966 387.202808 112.727994 384.379891 112.373827 C 380.504891 112.01966 384.9476 103.629035 385.437183 99.754035 C 385.79135 97.352993 383.8851 97.566534 382.619475 99.399868 C 380.504891 102.64466 376.697599 112.441535 372.749682 112.233202 C 370.140307 112.160285 369.999682 106.592577 375.708016 98.201951 C 376.624683 96.863409 374.791349 96.155076 373.874682 97.566534 C 370.06739 103.066535 366.046557 114.48841 371.900724 114.415494 C 378.176766 114.415494 380.926766 103.134243 383.463225 99.754035 C 384.030933 98.905076 384.312183 98.837368 384.098641 99.754035 C 383.395516 102.431118 376.765308 114.48841 383.676766 114.274869 C 387.343433 114.20716 390.234058 110.608202 391.994475 106.941535 C 395.239267 108.98841 403.843434 107.649868 413.004893 99.259243 C 413.572602 98.764451 413.004893 98.061326 412.301768 98.696743 Z M 392.629892 100.811326 C 392.562184 101.936326 392.41635 102.852993 392.1351 103.76966 C 391.994475 102.92591 392.1351 101.936326 392.629892 100.811326 Z M 445.718437 98.623826 C 441.421562 102.36341 437.400728 106.170702 433.734061 108.004035 C 426.119477 111.879035 426.333019 105.816535 426.473644 102.431118 C 426.822602 94.675909 420.900727 95.660284 416.530935 101.30091 C 413.218435 105.535285 410.60906 111.524869 409.124685 112.795702 C 408.208018 110.89466 412.161143 101.936326 413.92156 98.696743 C 414.624685 97.352993 412.650727 96.931118 411.947601 98.342576 C 409.478851 102.785285 407.083018 109.691535 407.364268 112.936327 C 407.57781 114.76966 409.056976 115.191536 410.958018 112.727994 C 412.723643 110.399869 415.119477 105.535285 417.869477 102.149868 C 421.114269 98.129034 424.286144 97.212368 424.072602 103.20716 C 424.004894 106.733202 424.426769 114.701952 434.088228 109.410285 C 438.385103 107.087368 442.687187 102.712368 446.353854 99.259243 C 446.98927 98.696743 446.353854 98.061326 445.718437 98.623826 Z M 445.718437 98.623826 " stroke="#f6f5f2" stroke-width="5.415038" stroke-opacity="1" stroke-miterlimit="4"/><g fill="#1d1d1d" fill-opacity="1"><g transform="translate(24.207287, 199.08291)"><g><path d="M 40.71875 -1.640625 C 36.910156 -0.6875 45.742188 -20.304688 47.699219 -30.617188 C 49.550781 -40.929688 42.09375 -38.707031 35.90625 -28.925781 C 32.363281 -23.53125 29.136719 -16.023438 27.550781 -14.226562 C 26.863281 -17.082031 35.164062 -36.011719 36.382812 -46.640625 C 37.175781 -54.46875 31.675781 -54.890625 23.375 -42.992188 C 14.277344 -29.984375 5.289062 -7.933594 1.902344 -2.328125 C 2.167969 -6.980469 11.421875 -33.789062 14.277344 -36.910156 C 14.648438 -37.015625 15.019531 -37.28125 15.125 -37.652344 C 15.492188 -38.550781 14.011719 -38.921875 12.957031 -37.226562 C 9.203125 -31.199219 0.898438 -8.988281 0.265625 -2.273438 C 0 0.527344 1.585938 1.320312 3.964844 -3.066406 C 7.984375 -10.46875 16.5 -30.988281 24.484375 -42.570312 C 30.566406 -51.507812 36.117188 -54.097656 35.007812 -46.375 C 33.789062 -37.652344 26.015625 -18.5625 26.230469 -14.066406 C 26.335938 -12.636719 27.390625 -12.320312 28.820312 -14.171875 C 30.40625 -16.289062 33.84375 -23.320312 37.226562 -28.503906 C 43.839844 -38.550781 47.910156 -37.914062 46.375 -30.460938 C 44.472656 -21.46875 33.738281 1.214844 40.296875 0 C 41.457031 -0.210938 41.882812 -1.902344 40.71875 -1.640625 Z M 40.71875 -1.640625 "/></g></g></g><g fill="#1d1d1d" fill-opacity="1"><g transform="translate(76.767445, 199.08291)"><g><path d="M 14.332031 -23.480469 C 11.792969 -20.570312 8.671875 -16.816406 5.5 -14.753906 C 2.167969 -12.636719 -1.375 -12.53125 -1.214844 -16.445312 C -1.164062 -18.71875 -0.160156 -20.78125 1.375 -23.054688 C 2.113281 -24.0625 0.742188 -24.589844 0.0546875 -23.585938 C -1.480469 -21.363281 -2.589844 -18.5625 -2.75 -16.023438 C -2.960938 -10.839844 1.535156 -10.574219 6.027344 -13.644531 C 9.464844 -15.96875 12.480469 -19.9375 14.964844 -23.109375 C 15.335938 -23.585938 14.753906 -23.902344 14.332031 -23.480469 Z M 3.171875 -26.597656 C 3.171875 -26.597656 3.171875 -26.597656 3.226562 -26.597656 C 3.171875 -26.597656 3.171875 -26.597656 3.171875 -26.597656 Z M 3.332031 -26.703125 C 3.382812 -26.757812 4.230469 -27.023438 4.285156 -27.867188 C 4.285156 -28.398438 3.808594 -28.660156 3.226562 -28.503906 C 2.378906 -28.183594 1.957031 -27.445312 1.640625 -26.652344 C 1.480469 -26.175781 1.320312 -25.699219 1.320312 -25.222656 C 1.320312 -24.800781 1.902344 -24.855469 2.113281 -25.277344 C 2.378906 -25.648438 2.695312 -26.230469 3.332031 -26.703125 Z M 3.332031 -26.703125 "/></g></g></g><g fill="#1d1d1d" fill-opacity="1"><g transform="translate(90.885723, 199.08291)"><g><path d="M 19.195312 -23.480469 C 16.761719 -21.046875 13.960938 -18.296875 11.210938 -16.234375 C 6.238281 -12.585938 1.320312 -11.792969 2.222656 -16.761719 C 2.539062 -18.351562 3.382812 -20.410156 4.863281 -22.6875 C 5.710938 -23.796875 5.445312 -24.273438 4.335938 -24.113281 C 3.808594 -24.007812 3.066406 -23.847656 2.328125 -23.796875 C 0.6875 -23.691406 0.847656 -24.273438 1.957031 -25.542969 C 2.910156 -26.546875 1.535156 -27.074219 0.742188 -26.175781 C -1.375 -23.636719 -1.109375 -22.050781 1.851562 -22.261719 C 2.378906 -22.316406 2.75 -22.367188 3.171875 -22.421875 C 2.0625 -20.570312 1.164062 -18.507812 0.742188 -16.550781 C -0.476562 -10.101562 5.550781 -10.417969 11.84375 -15.335938 C 14.914062 -17.769531 17.398438 -20.519531 19.722656 -23.109375 C 20.148438 -23.53125 19.617188 -23.902344 19.195312 -23.480469 Z M 19.195312 -23.480469 "/></g></g></g><g fill="#1d1d1d" fill-opacity="1"><g transform="translate(109.657213, 199.08291)"><g><path d="M 21.894531 -23.480469 C 19.617188 -21.046875 16.234375 -17.34375 12.320312 -14.914062 C 8.566406 -12.53125 5.078125 -12.375 5.921875 -16.65625 C 6.34375 -18.5625 7.191406 -20.410156 7.613281 -22.105469 C 8.195312 -24.429688 6.769531 -24.695312 4.972656 -22.421875 C 3.859375 -20.886719 2.910156 -19.195312 1.640625 -17.238281 C -0.632812 -13.90625 -3.121094 -11.632812 -2.855469 -14.753906 C -2.589844 -17.980469 0.898438 -25.171875 2.800781 -22.632812 C 3.332031 -21.945312 4.863281 -23.160156 4.335938 -23.847656 C 1.269531 -27.921875 -3.914062 -18.71875 -4.546875 -14.382812 C -4.972656 -10.574219 -1.214844 -10.207031 2.800781 -16.921875 C 3.808594 -18.613281 5.078125 -20.992188 5.816406 -22.105469 C 6.714844 -23.53125 6.980469 -23.003906 6.609375 -22 C 6.082031 -20.675781 5.023438 -18.507812 4.496094 -16.445312 C 3.015625 -10.894531 7.71875 -10.417969 12.851562 -13.800781 C 16.339844 -16.074219 19.882812 -19.882812 22.472656 -23.109375 C 22.84375 -23.585938 22.316406 -23.902344 21.894531 -23.480469 Z M 21.894531 -23.480469 "/></g></g></g><g fill="#1d1d1d" fill-opacity="1"><g transform="translate(131.284085, 199.08291)"><g><path d="M 25.328125 -23.53125 C 22.105469 -20.730469 19.089844 -17.875 16.339844 -16.5 C 10.628906 -13.589844 10.789062 -18.136719 10.894531 -20.675781 C 11.15625 -26.492188 6.714844 -25.753906 3.4375 -21.523438 C 0.953125 -18.351562 -1.003906 -13.855469 -2.113281 -12.902344 C -2.800781 -14.332031 0.160156 -21.046875 1.480469 -23.480469 C 2.007812 -24.484375 0.527344 -24.800781 0 -23.742188 C -1.851562 -20.410156 -3.648438 -15.230469 -3.4375 -12.796875 C -3.277344 -11.421875 -2.167969 -11.105469 -0.742188 -12.957031 C 0.582031 -14.699219 2.378906 -18.351562 4.441406 -20.886719 C 6.875 -23.902344 9.253906 -24.589844 9.09375 -20.09375 C 9.042969 -17.449219 9.359375 -11.476562 16.605469 -15.441406 C 19.832031 -17.1875 23.054688 -20.464844 25.804688 -23.054688 C 26.28125 -23.480469 25.804688 -23.953125 25.328125 -23.53125 Z M 25.328125 -23.53125 "/></g></g></g><g fill="#1d1d1d" fill-opacity="1"><g transform="translate(156.347983, 199.08291)"><g><path d="M 22.261719 -23.636719 C 20.199219 -20.992188 17.34375 -17.609375 14.699219 -15.441406 C 9.519531 -11.261719 5.289062 -12.796875 7.613281 -22.261719 C 11 -24.695312 18.5625 -32.734375 21.785156 -40.03125 C 24.640625 -46.695312 20.464844 -46.269531 16.605469 -42.25 C 11.582031 -37.070312 7.296875 -27.761719 5.816406 -21.523438 C 5.289062 -20.675781 2.910156 -16.816406 1.003906 -14.753906 C -0.527344 -13.007812 -1.585938 -12.691406 -1.691406 -14.59375 C -2.007812 -18.242188 2.007812 -27.867188 4.707031 -24.167969 C 5.234375 -23.480469 6.714844 -24.640625 6.1875 -25.382812 C 2.378906 -30.671875 -3.542969 -18.824219 -3.382812 -13.960938 C -3.277344 -11.261719 -0.953125 -10.574219 2.113281 -14.066406 C 3.332031 -15.546875 4.441406 -17.238281 5.339844 -18.824219 C 4.390625 -10.734375 9.835938 -9.78125 15.386719 -14.648438 C 18.136719 -17.082031 20.730469 -20.410156 22.898438 -23.320312 C 23.214844 -23.796875 22.632812 -24.113281 22.261719 -23.636719 Z M 17.503906 -41.617188 C 20.570312 -44.84375 22.738281 -45.054688 20.675781 -40.136719 C 18.613281 -35.324219 13.90625 -29.03125 8.25 -24.429688 C 9.835938 -29.558594 13.433594 -37.226562 17.503906 -41.617188 Z M 17.503906 -41.617188 "/></g></g></g><g fill="#1d1d1d" fill-opacity="1"><g transform="translate(178.186365, 199.08291)"><g><path d="M 21.894531 -23.480469 C 19.617188 -21.046875 16.234375 -17.34375 12.320312 -14.914062 C 8.566406 -12.53125 5.078125 -12.375 5.921875 -16.65625 C 6.34375 -18.5625 7.191406 -20.410156 7.613281 -22.105469 C 8.195312 -24.429688 6.769531 -24.695312 4.972656 -22.421875 C 3.859375 -20.886719 2.910156 -19.195312 1.640625 -17.238281 C -0.632812 -13.90625 -3.121094 -11.632812 -2.855469 -14.753906 C -2.589844 -17.980469 0.898438 -25.171875 2.800781 -22.632812 C 3.332031 -21.945312 4.863281 -23.160156 4.335938 -23.847656 C 1.269531 -27.921875 -3.914062 -18.71875 -4.546875 -14.382812 C -4.972656 -10.574219 -1.214844 -10.207031 2.800781 -16.921875 C 3.808594 -18.613281 5.078125 -20.992188 5.816406 -22.105469 C 6.714844 -23.53125 6.980469 -23.003906 6.609375 -22 C 6.082031 -20.675781 5.023438 -18.507812 4.496094 -16.445312 C 3.015625 -10.894531 7.71875 -10.417969 12.851562 -13.800781 C 16.339844 -16.074219 19.882812 -19.882812 22.472656 -23.109375 C 22.84375 -23.585938 22.316406 -23.902344 21.894531 -23.480469 Z M 21.894531 -23.480469 "/></g></g></g><g fill="#1d1d1d" fill-opacity="1"><g transform="translate(199.813237, 199.08291)"><g/></g></g><g fill="#1d1d1d" fill-opacity="1"><g transform="translate(215.729346, 199.08291)"><g><path d="M 30.617188 -33.472656 C 27.496094 -34.320312 24.007812 -34.320312 20.304688 -33.84375 C 25.011719 -37.121094 28.980469 -41.671875 31.042969 -46.480469 C 33.84375 -53.355469 29.296875 -54.625 23.375 -47.804688 C 16.605469 -39.871094 10.46875 -25.011719 7.457031 -16.179688 C 7.246094 -16.023438 7.085938 -15.863281 6.925781 -15.757812 C 8.25 -22.6875 14.59375 -43.785156 17.875 -45.582031 C 17.925781 -45.582031 18.71875 -45.425781 19.035156 -46.324219 C 19.300781 -47.0625 18.507812 -47.488281 17.34375 -46.640625 C 12.53125 -42.886719 5.976562 -21.097656 4.917969 -13.90625 C -1.480469 -7.402344 -1.058594 -1.003906 5.765625 0.0546875 C 11.105469 0.898438 20.042969 -1.003906 27.128906 -6.027344 C 39.765625 -14.964844 42.9375 -30.300781 30.617188 -33.472656 Z M 6.820312 -14.332031 C 6.714844 -14.066406 6.664062 -13.800781 6.558594 -13.539062 C 6.609375 -13.90625 6.609375 -13.800781 6.664062 -14.226562 C 6.714844 -14.277344 6.769531 -14.277344 6.820312 -14.332031 Z M 26.441406 -7.191406 C 20.09375 -2.75 11.6875 -0.742188 6.503906 -1.480469 C 0.527344 -2.273438 0.316406 -7.085938 4.707031 -12.214844 C 4.652344 -11.476562 4.652344 -10.734375 4.757812 -10.101562 C 5.023438 -8.566406 6.503906 -8.300781 7.246094 -10.628906 C 7.828125 -12.480469 8.460938 -14.332031 9.09375 -16.234375 C 14.964844 -20.519531 21.945312 -22.898438 28.34375 -24.0625 C 29.296875 -24.21875 29.402344 -25.382812 28.609375 -25.222656 C 22.421875 -24.0625 15.492188 -21.785156 9.675781 -17.820312 C 12.636719 -26.015625 18.191406 -39.871094 24.378906 -47.222656 C 29.242188 -52.933594 32.308594 -52.511719 29.824219 -46.535156 C 27.761719 -41.671875 22.84375 -36.222656 16.761719 -33.210938 C 15.863281 -32.734375 15.8125 -31.515625 16.710938 -31.675781 C 21.207031 -32.628906 25.910156 -32.945312 29.667969 -31.941406 C 40.824219 -29.03125 37.914062 -15.230469 26.441406 -7.191406 Z M 26.441406 -7.191406 "/></g></g></g><g fill="#1d1d1d" fill-opacity="1"><g transform="translate(259.882, 199.08291)"><g><path d="M 19.195312 -23.480469 C 16.761719 -21.046875 13.960938 -18.296875 11.210938 -16.234375 C 6.238281 -12.585938 1.320312 -11.792969 2.222656 -16.761719 C 2.539062 -18.351562 3.382812 -20.410156 4.863281 -22.6875 C 5.710938 -23.796875 5.445312 -24.273438 4.335938 -24.113281 C 3.808594 -24.007812 3.066406 -23.847656 2.328125 -23.796875 C 0.6875 -23.691406 0.847656 -24.273438 1.957031 -25.542969 C 2.910156 -26.546875 1.535156 -27.074219 0.742188 -26.175781 C -1.375 -23.636719 -1.109375 -22.050781 1.851562 -22.261719 C 2.378906 -22.316406 2.75 -22.367188 3.171875 -22.421875 C 2.0625 -20.570312 1.164062 -18.507812 0.742188 -16.550781 C -0.476562 -10.101562 5.550781 -10.417969 11.84375 -15.335938 C 14.914062 -17.769531 17.398438 -20.519531 19.722656 -23.109375 C 20.148438 -23.53125 19.617188 -23.902344 19.195312 -23.480469 Z M 19.195312 -23.480469 "/></g></g></g><g fill="#1d1d1d" fill-opacity="1"><g transform="translate(278.653491, 199.08291)"><g><path d="M 18.878906 -23.53125 C 14.382812 -19.777344 10.894531 -17.503906 5.710938 -17.132812 C 6.1875 -18.085938 6.503906 -19.035156 6.769531 -19.988281 C 8.832031 -29.453125 -2.433594 -25.4375 -2.589844 -19.195312 C -3.121094 -18.136719 -3.488281 -17.027344 -3.648438 -15.96875 C -4.335938 -10.628906 1.320312 -10.207031 4.863281 -15.546875 C 10.523438 -16.023438 14.542969 -18.457031 19.355469 -23.054688 C 19.777344 -23.480469 19.355469 -23.902344 18.878906 -23.53125 Z M 5.5 -19.832031 C 5.289062 -18.929688 4.972656 -17.980469 4.496094 -17.082031 C 2.167969 -17.082031 -0.632812 -17.398438 -0.792969 -19.566406 C -0.265625 -20.570312 0.6875 -21.785156 1.746094 -22.316406 C 2.433594 -22.6875 2.695312 -23.480469 2.167969 -23.742188 C 4.230469 -24.640625 6.1875 -23.375 5.5 -19.832031 Z M -1.796875 -17.027344 C -0.6875 -15.757812 1.429688 -15.441406 3.488281 -15.492188 C 0.632812 -11.738281 -2.75 -12.957031 -1.796875 -17.027344 Z M -1.796875 -17.027344 "/></g></g></g><g fill="#1d1d1d" fill-opacity="1"><g transform="translate(296.896219, 199.08291)"><g><path d="M 29.085938 -23.480469 C 21.734375 -17.34375 15.96875 -17.1875 14.488281 -18.667969 C 15.125 -20.199219 15.652344 -21.894531 15.917969 -23.585938 C 16.074219 -24.589844 14.59375 -24.589844 13.433594 -22.632812 C 12.425781 -20.941406 12.214844 -18.878906 13.273438 -17.769531 C 12.269531 -15.546875 10.257812 -12.957031 8.144531 -13.21875 C 5.234375 -13.484375 8.566406 -19.777344 8.9375 -22.6875 C 9.203125 -24.484375 7.773438 -24.324219 6.820312 -22.949219 C 5.234375 -20.519531 2.378906 -13.167969 -0.582031 -13.324219 C -2.539062 -13.378906 -2.644531 -17.554688 1.640625 -23.847656 C 2.328125 -24.855469 0.953125 -25.382812 0.265625 -24.324219 C -2.589844 -20.199219 -5.605469 -11.632812 -1.214844 -11.6875 C 3.488281 -11.6875 5.550781 -20.148438 7.457031 -22.6875 C 7.878906 -23.320312 8.089844 -23.375 7.933594 -22.6875 C 7.402344 -20.675781 2.433594 -11.632812 7.613281 -11.792969 C 10.363281 -11.84375 12.53125 -14.542969 13.855469 -17.292969 C 16.289062 -15.757812 22.738281 -16.761719 29.613281 -23.054688 C 30.035156 -23.425781 29.613281 -23.953125 29.085938 -23.480469 Z M 14.332031 -21.894531 C 14.277344 -21.046875 14.171875 -20.359375 13.960938 -19.671875 C 13.855469 -20.304688 13.960938 -21.046875 14.332031 -21.894531 Z M 14.332031 -21.894531 "/></g></g></g><g fill="#1d1d1d" fill-opacity="1"><g transform="translate(325.714408, 199.08291)"><g><path d="M 25.328125 -23.53125 C 22.105469 -20.730469 19.089844 -17.875 16.339844 -16.5 C 10.628906 -13.589844 10.789062 -18.136719 10.894531 -20.675781 C 11.15625 -26.492188 6.714844 -25.753906 3.4375 -21.523438 C 0.953125 -18.351562 -1.003906 -13.855469 -2.113281 -12.902344 C -2.800781 -14.332031 0.160156 -21.046875 1.480469 -23.480469 C 2.007812 -24.484375 0.527344 -24.800781 0 -23.742188 C -1.851562 -20.410156 -3.648438 -15.230469 -3.4375 -12.796875 C -3.277344 -11.421875 -2.167969 -11.105469 -0.742188 -12.957031 C 0.582031 -14.699219 2.378906 -18.351562 4.441406 -20.886719 C 6.875 -23.902344 9.253906 -24.589844 9.09375 -20.09375 C 9.042969 -17.449219 9.359375 -11.476562 16.605469 -15.441406 C 19.832031 -17.1875 23.054688 -20.464844 25.804688 -23.054688 C 26.28125 -23.480469 25.804688 -23.953125 25.328125 -23.53125 Z M 25.328125 -23.53125 "/></g></g></g><g fill="#1d1d1d" fill-opacity="1"><g transform="translate(125.213672, 262.476473)"><g><path d="M 4.671875 0.09375 C 3.566406 0.09375 2.707031 -0.21875 2.09375 -0.84375 C 1.476562 -1.476562 1.171875 -2.382812 1.171875 -3.5625 L 1.171875 -8.265625 L 2.34375 -8.265625 L 2.34375 -3.609375 C 2.34375 -1.835938 3.117188 -0.953125 4.671875 -0.953125 C 5.429688 -0.953125 6.007812 -1.171875 6.40625 -1.609375 C 6.8125 -2.046875 7.015625 -2.710938 7.015625 -3.609375 L 7.015625 -8.265625 L 8.15625 -8.265625 L 8.15625 -3.5625 C 8.15625 -2.375 7.847656 -1.46875 7.234375 -0.84375 C 6.617188 -0.21875 5.765625 0.09375 4.671875 0.09375 Z M 4.671875 0.09375 "/></g></g></g><g fill="#1d1d1d" fill-opacity="1"><g transform="translate(136.329408, 262.476473)"><g><path d="M 6.4375 0 L 3.953125 -3.40625 L 1.515625 0 L 0.15625 0 L 3.265625 -4.234375 L 0.34375 -8.265625 L 1.6875 -8.265625 L 4 -5.09375 L 6.296875 -8.265625 L 7.578125 -8.265625 L 4.671875 -4.28125 L 7.796875 0 Z M 6.4375 0 "/></g></g></g><g fill="#1d1d1d" fill-opacity="1"><g transform="translate(146.051316, 262.476473)"><g><path d="M 3.5625 -9.953125 L 4.59375 -9.953125 L 0.703125 1.1875 L -0.328125 1.1875 Z M 3.5625 -9.953125 "/></g></g></g><g fill="#1d1d1d" fill-opacity="1"><g transform="translate(151.981563, 262.476473)"><g><path d="M 4.671875 0.09375 C 3.566406 0.09375 2.707031 -0.21875 2.09375 -0.84375 C 1.476562 -1.476562 1.171875 -2.382812 1.171875 -3.5625 L 1.171875 -8.265625 L 2.34375 -8.265625 L 2.34375 -3.609375 C 2.34375 -1.835938 3.117188 -0.953125 4.671875 -0.953125 C 5.429688 -0.953125 6.007812 -1.171875 6.40625 -1.609375 C 6.8125 -2.046875 7.015625 -2.710938 7.015625 -3.609375 L 7.015625 -8.265625 L 8.15625 -8.265625 L 8.15625 -3.5625 C 8.15625 -2.375 7.847656 -1.46875 7.234375 -0.84375 C 6.617188 -0.21875 5.765625 0.09375 4.671875 0.09375 Z M 4.671875 0.09375 "/></g></g></g><g fill="#1d1d1d" fill-opacity="1"><g transform="translate(163.097298, 262.476473)"><g><path d="M 1.234375 -8.265625 L 2.421875 -8.265625 L 2.421875 0 L 1.234375 0 Z M 1.234375 -8.265625 "/></g></g></g><g fill="#1d1d1d" fill-opacity="1"><g transform="translate(168.531439, 262.476473)"><g/></g></g><g fill="#1d1d1d" fill-opacity="1"><g transform="translate(173.481279, 262.476473)"><g><path d="M 1.234375 -8.265625 L 4.71875 -8.265625 C 5.59375 -8.265625 6.367188 -8.09375 7.046875 -7.75 C 7.722656 -7.40625 8.25 -6.914062 8.625 -6.28125 C 9 -5.65625 9.1875 -4.941406 9.1875 -4.140625 C 9.1875 -3.328125 9 -2.609375 8.625 -1.984375 C 8.25 -1.359375 7.722656 -0.867188 7.046875 -0.515625 C 6.367188 -0.171875 5.59375 0 4.71875 0 L 1.234375 0 Z M 4.65625 -1.03125 C 5.320312 -1.03125 5.910156 -1.160156 6.421875 -1.421875 C 6.929688 -1.679688 7.320312 -2.046875 7.59375 -2.515625 C 7.875 -2.984375 8.015625 -3.523438 8.015625 -4.140625 C 8.015625 -4.753906 7.875 -5.296875 7.59375 -5.765625 C 7.320312 -6.234375 6.929688 -6.59375 6.421875 -6.84375 C 5.910156 -7.101562 5.320312 -7.234375 4.65625 -7.234375 L 2.421875 -7.234375 L 2.421875 -1.03125 Z M 4.65625 -1.03125 "/></g></g></g><g fill="#1d1d1d" fill-opacity="1"><g transform="translate(185.010434, 262.476473)"><g><path d="M 7.234375 -1.03125 L 7.234375 0 L 1.234375 0 L 1.234375 -8.265625 L 7.078125 -8.265625 L 7.078125 -7.234375 L 2.421875 -7.234375 L 2.421875 -4.703125 L 6.5625 -4.703125 L 6.5625 -3.703125 L 2.421875 -3.703125 L 2.421875 -1.03125 Z M 7.234375 -1.03125 "/></g></g></g><g fill="#1d1d1d" fill-opacity="1"><g transform="translate(194.696902, 262.476473)"><g><path d="M 3.65625 0.09375 C 3.03125 0.09375 2.425781 0 1.84375 -0.1875 C 1.269531 -0.382812 0.816406 -0.632812 0.484375 -0.9375 L 0.921875 -1.859375 C 1.234375 -1.578125 1.632812 -1.347656 2.125 -1.171875 C 2.625 -0.992188 3.132812 -0.90625 3.65625 -0.90625 C 4.332031 -0.90625 4.835938 -1.019531 5.171875 -1.25 C 5.515625 -1.488281 5.6875 -1.800781 5.6875 -2.1875 C 5.6875 -2.46875 5.59375 -2.695312 5.40625 -2.875 C 5.226562 -3.050781 5.003906 -3.1875 4.734375 -3.28125 C 4.460938 -3.375 4.078125 -3.484375 3.578125 -3.609375 C 2.953125 -3.753906 2.445312 -3.898438 2.0625 -4.046875 C 1.6875 -4.203125 1.363281 -4.429688 1.09375 -4.734375 C 0.820312 -5.046875 0.6875 -5.46875 0.6875 -6 C 0.6875 -6.4375 0.800781 -6.832031 1.03125 -7.1875 C 1.257812 -7.539062 1.609375 -7.820312 2.078125 -8.03125 C 2.554688 -8.25 3.144531 -8.359375 3.84375 -8.359375 C 4.332031 -8.359375 4.8125 -8.296875 5.28125 -8.171875 C 5.757812 -8.046875 6.171875 -7.863281 6.515625 -7.625 L 6.125 -6.6875 C 5.769531 -6.90625 5.394531 -7.070312 5 -7.1875 C 4.613281 -7.300781 4.226562 -7.359375 3.84375 -7.359375 C 3.175781 -7.359375 2.675781 -7.234375 2.34375 -6.984375 C 2.007812 -6.742188 1.84375 -6.429688 1.84375 -6.046875 C 1.84375 -5.765625 1.9375 -5.535156 2.125 -5.359375 C 2.3125 -5.179688 2.546875 -5.039062 2.828125 -4.9375 C 3.109375 -4.84375 3.488281 -4.738281 3.96875 -4.625 C 4.59375 -4.476562 5.09375 -4.328125 5.46875 -4.171875 C 5.84375 -4.023438 6.164062 -3.796875 6.4375 -3.484375 C 6.707031 -3.179688 6.84375 -2.769531 6.84375 -2.25 C 6.84375 -1.820312 6.722656 -1.425781 6.484375 -1.0625 C 6.253906 -0.707031 5.898438 -0.425781 5.421875 -0.21875 C 4.941406 -0.0078125 4.351562 0.09375 3.65625 0.09375 Z M 3.65625 0.09375 "/></g></g></g><g fill="#1d1d1d" fill-opacity="1"><g transform="translate(203.804588, 262.476473)"><g><path d="M 1.234375 -8.265625 L 2.421875 -8.265625 L 2.421875 0 L 1.234375 0 Z M 1.234375 -8.265625 "/></g></g></g><g fill="#1d1d1d" fill-opacity="1"><g transform="translate(209.238729, 262.476473)"><g><path d="M 6.96875 -4.1875 L 8.109375 -4.1875 L 8.109375 -0.953125 C 7.691406 -0.617188 7.210938 -0.359375 6.671875 -0.171875 C 6.128906 0.00390625 5.5625 0.09375 4.96875 0.09375 C 4.132812 0.09375 3.382812 -0.0859375 2.71875 -0.453125 C 2.050781 -0.816406 1.523438 -1.316406 1.140625 -1.953125 C 0.753906 -2.597656 0.5625 -3.328125 0.5625 -4.140625 C 0.5625 -4.941406 0.753906 -5.664062 1.140625 -6.3125 C 1.523438 -6.957031 2.050781 -7.457031 2.71875 -7.8125 C 3.394531 -8.175781 4.15625 -8.359375 5 -8.359375 C 5.65625 -8.359375 6.253906 -8.25 6.796875 -8.03125 C 7.335938 -7.820312 7.796875 -7.507812 8.171875 -7.09375 L 7.4375 -6.359375 C 6.78125 -6.992188 5.984375 -7.3125 5.046875 -7.3125 C 4.410156 -7.3125 3.84375 -7.175781 3.34375 -6.90625 C 2.84375 -6.632812 2.453125 -6.253906 2.171875 -5.765625 C 1.890625 -5.285156 1.75 -4.742188 1.75 -4.140625 C 1.75 -3.535156 1.890625 -2.988281 2.171875 -2.5 C 2.453125 -2.019531 2.84375 -1.640625 3.34375 -1.359375 C 3.84375 -1.085938 4.40625 -0.953125 5.03125 -0.953125 C 5.769531 -0.953125 6.414062 -1.128906 6.96875 -1.484375 Z M 6.96875 -4.1875 "/></g></g></g><g fill="#1d1d1d" fill-opacity="1"><g transform="translate(220.130028, 262.476473)"><g><path d="M 8.34375 -8.265625 L 8.34375 0 L 7.375 0 L 2.421875 -6.171875 L 2.421875 0 L 1.234375 0 L 1.234375 -8.265625 L 2.203125 -8.265625 L 7.171875 -2.109375 L 7.171875 -8.265625 Z M 8.34375 -8.265625 "/></g></g></g><g fill="#1d1d1d" fill-opacity="1"><g transform="translate(231.493811, 262.476473)"><g><path d="M 7.234375 -1.03125 L 7.234375 0 L 1.234375 0 L 1.234375 -8.265625 L 7.078125 -8.265625 L 7.078125 -7.234375 L 2.421875 -7.234375 L 2.421875 -4.703125 L 6.5625 -4.703125 L 6.5625 -3.703125 L 2.421875 -3.703125 L 2.421875 -1.03125 Z M 7.234375 -1.03125 "/></g></g></g><g fill="#1d1d1d" fill-opacity="1"><g transform="translate(241.180272, 262.476473)"><g><path d="M 6.765625 0 L 4.984375 -2.546875 C 4.765625 -2.523438 4.59375 -2.515625 4.46875 -2.515625 L 2.421875 -2.515625 L 2.421875 0 L 1.234375 0 L 1.234375 -8.265625 L 4.46875 -8.265625 C 5.539062 -8.265625 6.382812 -8.007812 7 -7.5 C 7.613281 -6.988281 7.921875 -6.285156 7.921875 -5.390625 C 7.921875 -4.742188 7.757812 -4.195312 7.4375 -3.75 C 7.125 -3.300781 6.675781 -2.976562 6.09375 -2.78125 L 8.0625 0 Z M 4.421875 -3.515625 C 5.171875 -3.515625 5.742188 -3.675781 6.140625 -4 C 6.535156 -4.320312 6.734375 -4.785156 6.734375 -5.390625 C 6.734375 -5.984375 6.535156 -6.4375 6.140625 -6.75 C 5.742188 -7.070312 5.171875 -7.234375 4.421875 -7.234375 L 2.421875 -7.234375 L 2.421875 -3.515625 Z M 4.421875 -3.515625 "/></g></g></g></svg>