<svg xmlns="http://www.w3.org/2000/svg" xmlns:xlink="http://www.w3.org/1999/xlink" width="520" zoomAndPan="magnify" viewBox="0 0 390 295.499996" height="394" preserveAspectRatio="xMidYMid meet" version="1.0"><defs><g/><clipPath id="a72060da47"><path d="M 0.328125 0 L 389.667969 0 L 389.667969 295 L 0.328125 295 Z M 0.328125 0 " clip-rule="nonzero"/></clipPath></defs><g clip-path="url(#a72060da47)"><path fill="#ffffff" d="M 0.328125 0 L 389.671875 0 L 389.671875 295 L 0.328125 295 Z M 0.328125 0 " fill-opacity="1" fill-rule="nonzero"/></g><g fill="#a6a6a6" fill-opacity="1"><g transform="translate(77.728857, 215.584251)"><g><path d="M 139.65625 -116.1875 L 139.65625 -112.90625 C 135.9375 -112.800781 133.144531 -112.390625 131.28125 -111.671875 C 129.425781 -110.960938 128.195312 -109.648438 127.59375 -107.734375 C 126.988281 -105.816406 126.6875 -102.835938 126.6875 -98.796875 L 126.6875 -17.390625 C 126.6875 -13.453125 126.988281 -10.5 127.59375 -8.53125 C 128.195312 -6.5625 129.425781 -5.25 131.28125 -4.59375 C 133.144531 -3.9375 135.9375 -3.5 139.65625 -3.28125 L 139.65625 0 C 136.914062 -0.21875 133.519531 -0.351562 129.46875 -0.40625 C 125.425781 -0.46875 121.328125 -0.5 117.171875 -0.5 C 112.578125 -0.5 108.253906 -0.46875 104.203125 -0.40625 C 100.160156 -0.351562 96.9375 -0.21875 94.53125 0 L 94.53125 -3.28125 C 98.25 -3.5 101.0625 -3.9375 102.96875 -4.59375 C 104.882812 -5.25 106.171875 -6.5625 106.828125 -8.53125 C 107.484375 -10.5 107.8125 -13.453125 107.8125 -17.390625 L 107.8125 -107.15625 L 108.640625 -106.828125 L 68.265625 0.65625 L 65.640625 0.65625 L 23.296875 -105.6875 L 23.296875 -21.65625 C 23.296875 -17.0625 23.625 -13.476562 24.28125 -10.90625 C 24.9375 -8.34375 26.359375 -6.515625 28.546875 -5.421875 C 30.742188 -4.328125 34.082031 -3.613281 38.5625 -3.28125 L 38.5625 0 C 36.488281 -0.21875 33.835938 -0.351562 30.609375 -0.40625 C 27.378906 -0.46875 24.34375 -0.5 21.5 -0.5 C 18.757812 -0.5 16.019531 -0.46875 13.28125 -0.40625 C 10.550781 -0.351562 8.3125 -0.21875 6.5625 0 L 6.5625 -3.28125 C 10.175781 -3.613281 12.910156 -4.296875 14.765625 -5.328125 C 16.628906 -6.367188 17.890625 -8.144531 18.546875 -10.65625 C 19.203125 -13.175781 19.53125 -16.625 19.53125 -21 L 19.53125 -98.796875 C 19.53125 -102.835938 19.203125 -105.816406 18.546875 -107.734375 C 17.890625 -109.648438 16.628906 -110.960938 14.765625 -111.671875 C 12.910156 -112.390625 10.175781 -112.800781 6.5625 -112.90625 L 6.5625 -116.1875 C 8.3125 -116.082031 10.550781 -115.972656 13.28125 -115.859375 C 16.019531 -115.753906 18.757812 -115.703125 21.5 -115.703125 C 24.664062 -115.703125 27.863281 -115.753906 31.09375 -115.859375 C 34.320312 -115.972656 37.085938 -116.082031 39.390625 -116.1875 L 75.65625 -22.96875 L 72.53125 -20.84375 L 108.140625 -115.703125 C 109.566406 -115.703125 111.046875 -115.703125 112.578125 -115.703125 C 114.109375 -115.703125 115.640625 -115.703125 117.171875 -115.703125 C 121.328125 -115.703125 125.425781 -115.753906 129.46875 -115.859375 C 133.519531 -115.972656 136.914062 -116.082031 139.65625 -116.1875 Z M 139.65625 -116.1875 "/></g></g></g><g fill="#a6a6a6" fill-opacity="1"><g transform="translate(207.379488, 215.584251)"><g><path d="M 6.40625 -116.1875 C 8.914062 -116.082031 12.164062 -115.972656 16.15625 -115.859375 C 20.15625 -115.753906 24.125 -115.703125 28.0625 -115.703125 C 33.3125 -115.703125 38.316406 -115.753906 43.078125 -115.859375 C 47.835938 -115.972656 51.203125 -116.03125 53.171875 -116.03125 C 65.421875 -116.03125 74.582031 -113.617188 80.65625 -108.796875 C 86.726562 -103.984375 89.765625 -97.804688 89.765625 -90.265625 C 89.765625 -86.429688 88.863281 -82.625 87.0625 -78.84375 C 85.257812 -75.070312 82.332031 -71.679688 78.28125 -68.671875 C 74.226562 -65.671875 68.867188 -63.296875 62.203125 -61.546875 L 62.203125 -61.21875 C 71.390625 -60.226562 78.609375 -58.253906 83.859375 -55.296875 C 89.109375 -52.347656 92.828125 -48.820312 95.015625 -44.71875 C 97.203125 -40.613281 98.296875 -36.320312 98.296875 -31.84375 C 98.296875 -25.382812 96.65625 -19.773438 93.375 -15.015625 C 90.09375 -10.253906 85.359375 -6.5625 79.171875 -3.9375 C 72.992188 -1.3125 65.585938 0 56.953125 0 C 54.535156 0 50.894531 -0.0820312 46.03125 -0.25 C 41.164062 -0.414062 35.285156 -0.5 28.390625 -0.5 C 24.234375 -0.5 20.15625 -0.46875 16.15625 -0.40625 C 12.164062 -0.351562 8.914062 -0.21875 6.40625 0 L 6.40625 -3.28125 C 10.125 -3.5 12.910156 -3.9375 14.765625 -4.59375 C 16.628906 -5.25 17.859375 -6.5625 18.453125 -8.53125 C 19.054688 -10.5 19.359375 -13.453125 19.359375 -17.390625 L 19.359375 -98.796875 C 19.359375 -102.835938 19.054688 -105.816406 18.453125 -107.734375 C 17.859375 -109.648438 16.601562 -110.960938 14.6875 -111.671875 C 12.769531 -112.390625 10.007812 -112.800781 6.40625 -112.90625 Z M 49.71875 -112.90625 C 45.019531 -112.90625 41.929688 -111.972656 40.453125 -110.109375 C 38.972656 -108.253906 38.234375 -104.484375 38.234375 -98.796875 L 38.234375 -17.390625 C 38.234375 -13.566406 38.5625 -10.671875 39.21875 -8.703125 C 39.875 -6.734375 41.050781 -5.421875 42.75 -4.765625 C 44.445312 -4.109375 46.9375 -3.78125 50.21875 -3.78125 C 60.0625 -3.78125 67.195312 -6.265625 71.625 -11.234375 C 76.0625 -16.210938 78.28125 -23.300781 78.28125 -32.5 C 78.28125 -40.914062 76.0625 -47.421875 71.625 -52.015625 C 67.195312 -56.617188 59.894531 -58.921875 49.71875 -58.921875 L 33.8125 -58.921875 C 33.8125 -58.921875 33.8125 -59.382812 33.8125 -60.3125 C 33.8125 -61.238281 33.8125 -61.703125 33.8125 -61.703125 L 47.921875 -61.703125 C 53.941406 -61.703125 58.59375 -62.929688 61.875 -65.390625 C 65.15625 -67.859375 67.394531 -71.140625 68.59375 -75.234375 C 69.800781 -79.335938 70.40625 -83.742188 70.40625 -88.453125 C 70.40625 -96.546875 68.816406 -102.644531 65.640625 -106.75 C 62.472656 -110.851562 57.164062 -112.90625 49.71875 -112.90625 Z M 49.71875 -112.90625 "/></g></g></g><path stroke-linecap="butt" transform="matrix(0.748733, 0, 0, 0.748733, 24.542585, 77.45186)" fill="none" stroke-linejoin="miter" d="M 64.228802 127.816559 C 59.152519 129.084325 70.927618 102.925554 73.536191 89.178373 C 76.003901 75.425975 66.06002 78.389314 57.811712 91.43218 C 53.090194 98.626625 48.786049 108.638329 46.673104 111.032999 C 45.754887 107.224482 56.825671 81.983928 58.448204 67.814159 C 59.502067 57.374649 52.171977 56.811197 41.101192 72.676539 C 28.976544 90.023551 16.987542 119.42217 12.47471 126.898341 C 12.829476 120.695154 25.168027 84.947267 28.976544 80.783984 C 29.466956 80.643121 29.962585 80.293573 30.103448 79.797944 C 30.593859 78.598 28.621778 78.107588 27.213149 80.361396 C 22.204688 88.401018 11.133903 118.013541 10.288726 126.966164 C 9.939177 130.706858 12.052121 131.760721 15.224146 125.9123 C 20.582155 116.041459 31.934666 88.682744 42.582862 73.239991 C 50.690307 61.324028 58.093438 57.870278 56.611768 68.163707 C 54.994453 79.797944 44.627983 105.252401 44.909709 111.246902 C 45.050572 113.15116 46.459201 113.573749 48.36346 111.106039 C 50.481621 108.283563 55.062276 98.908351 59.575107 91.995632 C 68.386868 78.598 73.817917 79.448395 71.772796 89.387059 C 69.232045 101.376061 54.921413 131.619859 63.66535 130.002543 C 65.214843 129.7156 65.778294 127.461793 64.228802 127.816559 Z M 99.126294 98.694448 C 95.740366 102.570788 91.5823 107.579248 87.351195 110.328684 C 82.906186 113.15116 78.184668 113.292023 78.398571 108.06966 C 78.466394 105.038498 79.807201 102.289062 81.852322 99.2579 C 82.838363 97.917093 81.007145 97.212778 80.088927 98.553585 C 78.043806 101.516924 76.562136 105.252401 76.35345 108.638329 C 76.071724 115.545831 82.061008 115.900597 88.055509 111.810354 C 92.636164 108.706152 96.658584 103.415965 99.971472 99.190077 C 100.467101 98.553585 99.689746 98.130996 99.126294 98.694448 Z M 84.246993 94.536382 C 84.246993 94.536382 84.246993 94.536382 84.320033 94.536382 C 84.246993 94.536382 84.246993 94.536382 84.246993 94.536382 Z M 84.460896 94.395519 C 84.528718 94.322479 85.660839 93.97293 85.728662 92.84081 C 85.728662 92.136495 85.09217 91.786946 84.320033 91.995632 C 83.193129 92.418221 82.62446 93.404261 82.201871 94.463342 C 81.993185 95.099834 81.779282 95.731109 81.779282 96.367601 C 81.779282 96.931052 82.556637 96.863229 82.838363 96.299778 C 83.193129 95.804149 83.615718 95.026794 84.460896 94.395519 Z M 124.434671 98.694448 C 121.194823 101.939513 117.454129 105.60195 113.791692 108.356603 C 107.160699 113.218983 100.602746 114.278064 101.80269 107.647071 C 102.225279 105.534127 103.352183 102.784691 105.329481 99.753529 C 106.456385 98.271859 106.106836 97.635367 104.625166 97.84927 C 103.920851 97.990133 102.929594 98.198819 101.943553 98.271859 C 99.757569 98.412722 99.971472 97.635367 101.453141 95.945012 C 102.720908 94.604205 100.884472 93.89989 99.830609 95.099834 C 97.008133 98.480545 97.362899 100.598706 101.312278 100.31698 C 102.016593 100.24394 102.507005 100.176117 103.070457 100.103077 C 101.594004 102.570788 100.394061 105.320224 99.830609 107.928797 C 98.208076 116.531871 106.247699 116.109282 114.63687 109.551329 C 118.727113 106.311482 122.040001 102.643828 125.138986 99.190077 C 125.707655 98.626625 124.998123 98.130996 124.434671 98.694448 Z M 153.061153 98.694448 C 150.029991 101.939513 145.517159 106.874933 140.300013 110.114781 C 135.291553 113.292023 130.637858 113.500709 131.769979 107.787934 C 132.333431 105.252401 133.460334 102.784691 134.023786 100.525666 C 134.801141 97.426681 132.896882 97.071915 130.496995 100.103077 C 129.015325 102.148199 127.747559 104.407223 126.057203 107.015796 C 123.026041 111.455588 119.713154 114.48675 120.062702 110.328684 C 120.417468 106.029756 125.071163 96.440641 127.606696 99.821351 C 128.311011 100.739569 130.356132 99.117037 129.651817 98.198819 C 125.561575 92.772987 118.654073 105.038498 117.808895 110.824313 C 117.245443 115.900597 122.248687 116.391008 127.606696 107.438385 C 128.947503 105.179361 130.637858 102.007336 131.629116 100.525666 C 132.823842 98.626625 133.178608 99.33094 132.682979 100.666529 C 131.978665 102.429925 130.570035 105.320224 129.86572 108.06966 C 127.888422 115.472791 134.164649 116.109282 141.004328 111.596451 C 145.658022 108.565289 150.37954 103.489005 153.838508 99.190077 C 154.32892 98.553585 153.624605 98.130996 153.061153 98.694448 Z M 186.482193 98.626625 C 182.178047 102.362102 178.160844 106.170619 174.49319 108.001837 C 166.876157 111.878177 167.09006 105.815853 167.230923 102.429925 C 167.585689 94.677245 161.65901 95.663286 157.287042 101.303021 C 153.974154 105.534127 151.365581 111.528628 149.883911 112.796394 C 148.97091 110.892136 152.92029 101.939513 154.678468 98.694448 C 155.388 97.353641 153.410702 96.931052 152.706387 98.339682 C 150.238677 102.784691 147.844007 109.692192 148.125733 112.937257 C 148.334418 114.768476 149.816088 115.191065 151.720346 112.723354 C 153.483742 110.396507 155.878412 105.534127 158.627848 102.148199 C 161.872913 98.130996 165.044938 97.212778 164.836252 103.207279 C 164.763212 106.73407 165.185801 114.700653 174.847956 109.410466 C 179.146885 107.083619 183.445813 102.711651 187.113467 99.2579 C 187.749959 98.694448 187.113467 98.057956 186.482193 98.626625 Z M 215.807772 98.480545 C 213.058336 102.007336 209.249819 106.520167 205.728246 109.410466 C 198.815527 114.982379 193.175791 112.937257 196.279994 100.31698 C 200.792825 97.071915 210.872352 86.355897 215.176498 76.625919 C 218.979797 67.741118 213.413102 68.30457 208.263779 73.66258 C 201.564963 80.575299 195.857405 92.981673 193.880106 101.303021 C 193.175791 102.429925 190.003766 107.579248 187.463016 110.328684 C 185.417895 112.655531 184.009265 113.07812 183.868402 110.53737 C 183.445813 105.67499 188.803823 92.84081 192.398437 97.77623 C 193.107969 98.694448 195.08005 97.144955 194.375735 96.153698 C 189.299452 89.105333 181.400692 104.897635 181.614595 111.387765 C 181.755458 114.982379 184.854443 115.900597 188.944686 111.246902 C 190.567218 109.269604 192.048888 107.015796 193.248832 104.897635 C 191.975848 115.686694 199.238116 116.95446 206.641246 110.469547 C 210.3089 107.224482 213.762651 102.784691 216.65295 98.908351 C 217.075539 98.271859 216.303401 97.84927 215.807772 98.480545 Z M 209.463722 74.507757 C 213.553965 70.208829 216.444264 69.927103 213.694828 76.485056 C 210.945392 82.902146 204.669165 91.291317 197.125171 97.426681 C 199.238116 90.587002 204.032673 80.361396 209.463722 74.507757 Z M 244.434254 98.694448 C 241.403092 101.939513 236.890261 106.874933 231.673114 110.114781 C 226.664654 113.292023 222.010959 113.500709 223.137863 107.787934 C 223.701315 105.252401 224.833436 102.784691 225.396887 100.525666 C 226.174242 97.426681 224.269984 97.071915 221.870096 100.103077 C 220.388427 102.148199 219.12066 104.407223 217.430305 107.015796 C 214.399143 111.455588 211.081038 114.48675 211.435804 110.328684 C 211.79057 106.029756 216.439047 96.440641 218.979797 99.821351 C 219.684112 100.739569 221.729233 99.117037 221.024919 98.198819 C 216.934676 92.772987 210.027174 105.038498 209.176779 110.824313 C 208.613328 115.900597 213.621788 116.391008 218.979797 107.438385 C 220.320604 105.179361 222.010959 102.007336 222.997 100.525666 C 224.196944 98.626625 224.55171 99.33094 224.056081 100.666529 C 223.351766 102.429925 221.943136 105.320224 221.233605 108.06966 C 219.261523 115.472791 225.53775 116.109282 232.377429 111.596451 C 237.031124 108.565289 241.752641 103.489005 245.206392 99.190077 C 245.702021 98.553585 244.997706 98.130996 244.434254 98.694448 Z M 306.121793 85.369856 C 301.963727 84.242952 297.310033 84.242952 292.374612 84.874227 C 298.650839 80.502258 303.941026 74.439934 306.690462 68.022844 C 310.425939 58.856318 304.363615 57.165963 296.464855 66.259449 C 287.439192 76.834605 279.258706 96.649326 275.241504 108.424426 C 274.959778 108.638329 274.745875 108.847015 274.537189 108.987878 C 276.300584 99.753529 284.762796 71.617458 289.129547 69.222788 C 289.202587 69.222788 290.261668 69.431474 290.684257 68.236747 C 291.033806 67.24549 289.979942 66.682038 288.425233 67.814159 C 282.008143 72.817402 273.269422 101.866473 271.855576 111.455588 C 263.325541 120.126485 263.888993 128.661737 272.987697 130.070366 C 280.109101 131.19727 292.025064 128.661737 301.473316 121.962921 C 318.324698 110.046958 322.550587 89.600962 306.121793 85.369856 Z M 274.396326 110.892136 C 274.255463 111.246902 274.182423 111.596451 274.04156 111.951217 C 274.1146 111.455588 274.1146 111.596451 274.182423 111.032999 C 274.255463 110.965176 274.323286 110.965176 274.396326 110.892136 Z M 300.555098 120.413428 C 292.092886 126.334889 280.881239 129.011285 273.973737 128.025245 C 266.007155 126.966164 265.725429 120.554291 271.57385 113.714612 C 271.506027 114.700653 271.506027 115.686694 271.64689 116.531871 C 271.996439 118.576993 273.973737 118.931759 274.959778 115.827556 C 275.737133 113.359846 276.58231 110.892136 277.427488 108.356603 C 285.253208 102.643828 294.560597 99.471803 303.090631 97.917093 C 304.363615 97.708407 304.504478 96.153698 303.445397 96.367601 C 295.197089 97.917093 285.957522 100.948255 278.204843 106.238441 C 282.154223 95.30852 289.557353 76.834605 297.805662 67.036804 C 304.290575 59.41977 308.380817 59.983222 305.067929 67.955021 C 302.318493 74.439934 295.76054 81.702202 287.653095 85.719405 C 286.453151 86.355897 286.380111 87.978429 287.580055 87.764526 C 293.574556 86.49676 299.850783 86.074171 304.854026 87.414977 C 319.733328 91.291317 315.851771 109.692192 300.555098 120.413428 Z M 349.763222 98.694448 C 346.523374 101.939513 342.782681 105.60195 339.120244 108.356603 C 332.489251 113.218983 325.931298 114.278064 327.131241 107.647071 C 327.55383 105.534127 328.680734 102.784691 330.658032 99.753529 C 331.784936 98.271859 331.43017 97.635367 329.953718 97.84927 C 329.249403 97.990133 328.258145 98.198819 327.272104 98.271859 C 325.08612 98.412722 325.300023 97.635367 326.781693 95.945012 C 328.049459 94.604205 326.213024 93.89989 325.15916 95.099834 C 322.336684 98.480545 322.69145 100.598706 326.64083 100.31698 C 327.345144 100.24394 327.835556 100.176117 328.399008 100.103077 C 326.922556 102.570788 325.722612 105.320224 325.15916 107.928797 C 323.536628 116.531871 331.57625 116.109282 339.965422 109.551329 C 344.055664 106.311482 347.368552 102.643828 350.467537 99.190077 C 351.036206 98.626625 350.326674 98.130996 349.763222 98.694448 Z M 374.372502 98.626625 C 368.378001 103.629868 363.724306 106.66103 356.811587 107.156659 C 357.448079 105.888893 357.870668 104.615909 358.225434 103.348142 C 360.97487 90.727865 345.954706 96.085875 345.74602 104.407223 C 345.041705 105.815853 344.546076 107.297522 344.332173 108.706152 C 343.419172 115.827556 350.963166 116.391008 355.684684 109.269604 C 363.228677 108.638329 368.586686 105.393264 375.003776 99.2579 C 375.567228 98.694448 375.003776 98.130996 374.372502 98.626625 Z M 356.529861 103.562045 C 356.248135 104.756772 355.825546 106.029756 355.194272 107.224482 C 352.09007 107.224482 348.354593 106.801893 348.14069 103.911594 C 348.845005 102.570788 350.117988 100.948255 351.526618 100.24394 C 352.444836 99.753529 352.794384 98.694448 352.09007 98.339682 C 354.839506 97.144955 357.448079 98.835311 356.529861 103.562045 Z M 346.799883 107.297522 C 348.281553 108.987878 351.104029 109.410466 353.853465 109.342644 C 350.044948 114.345887 345.532117 112.723354 346.799883 107.297522 Z M 412.301156 98.694448 C 402.503355 106.874933 394.818498 107.083619 392.8412 105.111538 C 393.686378 103.066416 394.390692 100.807392 394.745458 98.553585 C 394.959361 97.212778 392.982063 97.212778 391.43257 99.821351 C 390.091764 102.080376 389.810038 104.829812 391.218667 106.311482 C 389.883078 109.269604 387.201465 112.723354 384.378989 112.373806 C 380.502649 112.01904 384.94244 103.629868 385.438069 99.753529 C 385.792835 97.353641 383.888577 97.567544 382.62081 99.398763 C 380.502649 102.643828 376.694132 112.441628 372.744752 112.232943 C 370.136179 112.159903 369.995316 106.593207 375.708091 98.198819 C 376.626309 96.863229 374.789873 96.153698 373.876873 97.567544 C 370.068356 103.066416 366.051153 114.48675 371.899574 114.418927 C 378.175801 114.418927 380.925238 103.134239 383.465988 99.753529 C 384.02944 98.908351 384.311166 98.835311 384.097263 99.753529 C 383.392948 102.429925 376.767172 114.48675 383.674674 114.278064 C 387.342328 114.205024 390.232627 110.61041 391.996022 106.942756 C 395.241087 108.987878 403.838944 107.647071 413.005471 99.2579 C 413.568922 98.767488 413.005471 98.057956 412.301156 98.694448 Z M 392.632514 100.807392 C 392.559474 101.939513 392.418611 102.852513 392.136885 103.770731 C 391.996022 102.925554 392.136885 101.939513 392.632514 100.807392 Z M 445.722195 98.626625 C 441.41805 102.362102 437.400847 106.170619 433.733193 108.001837 C 426.121377 111.878177 426.330062 105.815853 426.470925 102.429925 C 426.825691 94.677245 420.899013 95.663286 416.532262 101.303021 C 413.214156 105.534127 410.605583 111.528628 409.129131 112.796394 C 408.210913 110.892136 412.160293 101.939513 413.923688 98.694448 C 414.628003 97.353641 412.650705 96.931052 411.94639 98.339682 C 409.47868 102.784691 407.084009 109.692192 407.365735 112.937257 C 407.574421 114.768476 409.056091 115.191065 410.960349 112.723354 C 412.723745 110.396507 415.118415 105.534127 417.867851 102.148199 C 421.112916 98.130996 424.284941 97.212778 424.076255 103.207279 C 424.003215 106.73407 424.425804 114.700653 434.087959 109.410466 C 438.386888 107.083619 442.685816 102.711651 446.35347 99.2579 C 446.989962 98.694448 446.35347 98.057956 445.722195 98.626625 Z M 445.722195 98.626625 " stroke="#f6f5f2" stroke-width="5.415038" stroke-opacity="1" stroke-miterlimit="4"/><g fill="#3d3b3a" fill-opacity="1"><g transform="translate(31.983119, 174.787158)"><g><path d="M 40.648438 -1.636719 C 36.847656 -0.6875 45.664062 -20.273438 47.617188 -30.566406 C 49.464844 -40.859375 42.023438 -38.644531 35.84375 -28.878906 C 32.308594 -23.492188 29.089844 -15.996094 27.503906 -14.199219 C 26.816406 -17.050781 35.105469 -35.949219 36.320312 -46.5625 C 37.113281 -54.375 31.621094 -54.796875 23.332031 -42.917969 C 14.253906 -29.933594 5.277344 -7.917969 1.902344 -2.324219 C 2.164062 -6.96875 11.402344 -33.734375 14.253906 -36.847656 C 14.625 -36.953125 14.992188 -37.21875 15.097656 -37.585938 C 15.46875 -38.484375 13.988281 -38.855469 12.933594 -37.164062 C 9.1875 -31.148438 0.898438 -8.972656 0.265625 -2.269531 C 0 0.527344 1.582031 1.320312 3.960938 -3.0625 C 7.972656 -10.453125 16.472656 -30.9375 24.441406 -42.496094 C 30.511719 -51.417969 36.054688 -54.003906 34.949219 -46.296875 C 33.734375 -37.585938 25.972656 -18.53125 26.183594 -14.042969 C 26.289062 -12.617188 27.347656 -12.300781 28.769531 -14.148438 C 30.355469 -16.261719 33.785156 -23.28125 37.164062 -28.453125 C 43.765625 -38.484375 47.828125 -37.851562 46.296875 -30.40625 C 44.398438 -21.433594 33.679688 1.214844 40.226562 0 C 41.386719 -0.210938 41.8125 -1.902344 40.648438 -1.636719 Z M 40.648438 -1.636719 "/></g></g></g><g fill="#3d3b3a" fill-opacity="1"><g transform="translate(84.454494, 174.787158)"><g><path d="M 14.304688 -23.4375 C 11.773438 -20.535156 8.65625 -16.789062 5.492188 -14.730469 C 2.164062 -12.617188 -1.371094 -12.511719 -1.214844 -16.417969 C -1.160156 -18.6875 -0.160156 -20.746094 1.371094 -23.015625 C 2.113281 -24.019531 0.738281 -24.546875 0.0546875 -23.546875 C -1.476562 -21.328125 -2.585938 -18.53125 -2.746094 -15.996094 C -2.957031 -10.820312 1.53125 -10.558594 6.019531 -13.621094 C 9.449219 -15.941406 12.457031 -19.902344 14.941406 -23.070312 C 15.308594 -23.546875 14.730469 -23.863281 14.304688 -23.4375 Z M 3.167969 -26.554688 C 3.167969 -26.554688 3.167969 -26.554688 3.21875 -26.554688 C 3.167969 -26.554688 3.167969 -26.554688 3.167969 -26.554688 Z M 3.324219 -26.660156 C 3.378906 -26.710938 4.222656 -26.976562 4.277344 -27.820312 C 4.277344 -28.347656 3.800781 -28.613281 3.21875 -28.453125 C 2.375 -28.136719 1.953125 -27.398438 1.636719 -26.605469 C 1.476562 -26.132812 1.320312 -25.65625 1.320312 -25.179688 C 1.320312 -24.757812 1.902344 -24.8125 2.113281 -25.234375 C 2.375 -25.605469 2.691406 -26.183594 3.324219 -26.660156 Z M 3.324219 -26.660156 "/></g></g></g><g fill="#3d3b3a" fill-opacity="1"><g transform="translate(98.548923, 174.787158)"><g><path d="M 19.164062 -23.4375 C 16.734375 -21.011719 13.9375 -18.265625 11.191406 -16.207031 C 6.230469 -12.5625 1.320312 -11.773438 2.21875 -16.734375 C 2.535156 -18.320312 3.378906 -20.378906 4.855469 -22.648438 C 5.703125 -23.757812 5.4375 -24.230469 4.328125 -24.074219 C 3.800781 -23.96875 3.0625 -23.808594 2.324219 -23.757812 C 0.6875 -23.652344 0.84375 -24.230469 1.953125 -25.5 C 2.902344 -26.5 1.53125 -27.027344 0.738281 -26.132812 C -1.371094 -23.597656 -1.109375 -22.015625 1.847656 -22.226562 C 2.375 -22.277344 2.746094 -22.332031 3.167969 -22.382812 C 2.058594 -20.535156 1.160156 -18.476562 0.738281 -16.523438 C -0.476562 -10.082031 5.542969 -10.398438 11.824219 -15.308594 C 14.886719 -17.738281 17.367188 -20.484375 19.691406 -23.070312 C 20.113281 -23.492188 19.585938 -23.863281 19.164062 -23.4375 Z M 19.164062 -23.4375 "/></g></g></g><g fill="#3d3b3a" fill-opacity="1"><g transform="translate(117.288705, 174.787158)"><g><path d="M 21.855469 -23.4375 C 19.585938 -21.011719 16.207031 -17.316406 12.300781 -14.886719 C 8.550781 -12.511719 5.066406 -12.351562 5.914062 -16.628906 C 6.335938 -18.53125 7.179688 -20.378906 7.601562 -22.066406 C 8.183594 -24.390625 6.757812 -24.652344 4.960938 -22.382812 C 3.855469 -20.851562 2.902344 -19.164062 1.636719 -17.210938 C -0.632812 -13.882812 -3.113281 -11.613281 -2.851562 -14.730469 C -2.585938 -17.949219 0.898438 -25.128906 2.796875 -22.59375 C 3.324219 -21.910156 4.855469 -23.121094 4.328125 -23.808594 C 1.265625 -27.875 -3.90625 -18.6875 -4.539062 -14.359375 C -4.960938 -10.558594 -1.214844 -10.1875 2.796875 -16.894531 C 3.800781 -18.582031 5.066406 -20.957031 5.808594 -22.066406 C 6.703125 -23.492188 6.96875 -22.964844 6.597656 -21.960938 C 6.070312 -20.640625 5.015625 -18.476562 4.488281 -16.417969 C 3.007812 -10.875 7.707031 -10.398438 12.828125 -13.777344 C 16.3125 -16.046875 19.851562 -19.851562 22.4375 -23.070312 C 22.804688 -23.546875 22.277344 -23.863281 21.855469 -23.4375 Z M 21.855469 -23.4375 "/></g></g></g><g fill="#3d3b3a" fill-opacity="1"><g transform="translate(138.879045, 174.787158)"><g><path d="M 25.289062 -23.492188 C 22.066406 -20.695312 19.058594 -17.84375 16.3125 -16.472656 C 10.609375 -13.566406 10.769531 -18.109375 10.875 -20.640625 C 11.140625 -26.449219 6.703125 -25.710938 3.429688 -21.484375 C 0.949219 -18.320312 -1.003906 -13.832031 -2.113281 -12.882812 C -2.796875 -14.304688 0.160156 -21.011719 1.476562 -23.4375 C 2.007812 -24.441406 0.527344 -24.757812 0 -23.703125 C -1.847656 -20.378906 -3.644531 -15.203125 -3.429688 -12.777344 C -3.273438 -11.402344 -2.164062 -11.085938 -0.738281 -12.933594 C 0.582031 -14.675781 2.375 -18.320312 4.433594 -20.851562 C 6.863281 -23.863281 9.238281 -24.546875 9.082031 -20.0625 C 9.027344 -17.421875 9.34375 -11.457031 16.578125 -15.414062 C 19.796875 -17.15625 23.015625 -20.429688 25.761719 -23.015625 C 26.238281 -23.4375 25.761719 -23.914062 25.289062 -23.492188 Z M 25.289062 -23.492188 "/></g></g></g><g fill="#3d3b3a" fill-opacity="1"><g transform="translate(163.900606, 174.787158)"><g><path d="M 22.226562 -23.597656 C 20.167969 -20.957031 17.316406 -17.578125 14.675781 -15.414062 C 9.503906 -11.246094 5.277344 -12.777344 7.601562 -22.226562 C 10.980469 -24.652344 18.53125 -32.679688 21.75 -39.964844 C 24.601562 -46.613281 20.429688 -46.191406 16.578125 -42.179688 C 11.5625 -37.007812 7.285156 -27.714844 5.808594 -21.484375 C 5.277344 -20.640625 2.902344 -16.789062 1.003906 -14.730469 C -0.527344 -12.988281 -1.582031 -12.671875 -1.6875 -14.570312 C -2.007812 -18.214844 2.007812 -27.820312 4.699219 -24.125 C 5.226562 -23.4375 6.703125 -24.601562 6.175781 -25.339844 C 2.375 -30.617188 -3.535156 -18.792969 -3.378906 -13.9375 C -3.273438 -11.246094 -0.949219 -10.558594 2.113281 -14.042969 C 3.324219 -15.519531 4.433594 -17.210938 5.332031 -18.792969 C 4.382812 -10.714844 9.820312 -9.765625 15.363281 -14.625 C 18.109375 -17.050781 20.695312 -20.378906 22.859375 -23.28125 C 23.175781 -23.757812 22.59375 -24.074219 22.226562 -23.597656 Z M 17.472656 -41.546875 C 20.535156 -44.765625 22.699219 -44.976562 20.640625 -40.070312 C 18.582031 -35.265625 13.882812 -28.984375 8.234375 -24.390625 C 9.820312 -29.511719 13.410156 -37.164062 17.472656 -41.546875 Z M 17.472656 -41.546875 "/></g></g></g><g fill="#3d3b3a" fill-opacity="1"><g transform="translate(185.702099, 174.787158)"><g><path d="M 21.855469 -23.4375 C 19.585938 -21.011719 16.207031 -17.316406 12.300781 -14.886719 C 8.550781 -12.511719 5.066406 -12.351562 5.914062 -16.628906 C 6.335938 -18.53125 7.179688 -20.378906 7.601562 -22.066406 C 8.183594 -24.390625 6.757812 -24.652344 4.960938 -22.382812 C 3.855469 -20.851562 2.902344 -19.164062 1.636719 -17.210938 C -0.632812 -13.882812 -3.113281 -11.613281 -2.851562 -14.730469 C -2.585938 -17.949219 0.898438 -25.128906 2.796875 -22.59375 C 3.324219 -21.910156 4.855469 -23.121094 4.328125 -23.808594 C 1.265625 -27.875 -3.90625 -18.6875 -4.539062 -14.359375 C -4.960938 -10.558594 -1.214844 -10.1875 2.796875 -16.894531 C 3.800781 -18.582031 5.066406 -20.957031 5.808594 -22.066406 C 6.703125 -23.492188 6.96875 -22.964844 6.597656 -21.960938 C 6.070312 -20.640625 5.015625 -18.476562 4.488281 -16.417969 C 3.007812 -10.875 7.707031 -10.398438 12.828125 -13.777344 C 16.3125 -16.046875 19.851562 -19.851562 22.4375 -23.070312 C 22.804688 -23.546875 22.277344 -23.863281 21.855469 -23.4375 Z M 21.855469 -23.4375 "/></g></g></g><g fill="#3d3b3a" fill-opacity="1"><g transform="translate(207.292439, 174.787158)"><g/></g></g><g fill="#3d3b3a" fill-opacity="1"><g transform="translate(223.181664, 174.787158)"><g><path d="M 30.566406 -33.417969 C 27.453125 -34.261719 23.96875 -34.261719 20.273438 -33.785156 C 24.96875 -37.058594 28.929688 -41.601562 30.988281 -46.402344 C 33.785156 -53.265625 29.246094 -54.535156 23.332031 -47.722656 C 16.578125 -39.804688 10.453125 -24.96875 7.445312 -16.152344 C 7.234375 -15.996094 7.074219 -15.835938 6.914062 -15.730469 C 8.234375 -22.648438 14.570312 -43.710938 17.84375 -45.507812 C 17.894531 -45.507812 18.6875 -45.347656 19.003906 -46.246094 C 19.269531 -46.984375 18.476562 -47.40625 17.316406 -46.5625 C 12.511719 -42.8125 5.964844 -21.0625 4.910156 -13.882812 C -1.476562 -7.390625 -1.054688 -1.003906 5.753906 0.0546875 C 11.085938 0.898438 20.007812 -1.003906 27.082031 -6.019531 C 39.699219 -14.941406 42.867188 -30.25 30.566406 -33.417969 Z M 6.808594 -14.304688 C 6.703125 -14.042969 6.652344 -13.777344 6.546875 -13.515625 C 6.597656 -13.882812 6.597656 -13.777344 6.652344 -14.199219 C 6.703125 -14.253906 6.757812 -14.253906 6.808594 -14.304688 Z M 26.394531 -7.179688 C 20.0625 -2.746094 11.667969 -0.738281 6.492188 -1.476562 C 0.527344 -2.269531 0.316406 -7.074219 4.699219 -12.195312 C 4.644531 -11.457031 4.644531 -10.714844 4.75 -10.082031 C 5.015625 -8.550781 6.492188 -8.289062 7.234375 -10.609375 C 7.8125 -12.457031 8.445312 -14.304688 9.082031 -16.207031 C 14.941406 -20.484375 21.910156 -22.859375 28.296875 -24.019531 C 29.246094 -24.179688 29.351562 -25.339844 28.558594 -25.179688 C 22.382812 -24.019531 15.46875 -21.75 9.660156 -17.789062 C 12.617188 -25.972656 18.160156 -39.804688 24.335938 -47.144531 C 29.195312 -52.84375 32.253906 -52.421875 29.773438 -46.457031 C 27.714844 -41.601562 22.804688 -36.164062 16.734375 -33.152344 C 15.835938 -32.679688 15.785156 -31.464844 16.683594 -31.621094 C 21.167969 -32.574219 25.867188 -32.890625 29.617188 -31.886719 C 40.753906 -28.984375 37.851562 -15.203125 26.394531 -7.179688 Z M 26.394531 -7.179688 "/></g></g></g><g fill="#3d3b3a" fill-opacity="1"><g transform="translate(267.259736, 174.787158)"><g><path d="M 19.164062 -23.4375 C 16.734375 -21.011719 13.9375 -18.265625 11.191406 -16.207031 C 6.230469 -12.5625 1.320312 -11.773438 2.21875 -16.734375 C 2.535156 -18.320312 3.378906 -20.378906 4.855469 -22.648438 C 5.703125 -23.757812 5.4375 -24.230469 4.328125 -24.074219 C 3.800781 -23.96875 3.0625 -23.808594 2.324219 -23.757812 C 0.6875 -23.652344 0.84375 -24.230469 1.953125 -25.5 C 2.902344 -26.5 1.53125 -27.027344 0.738281 -26.132812 C -1.371094 -23.597656 -1.109375 -22.015625 1.847656 -22.226562 C 2.375 -22.277344 2.746094 -22.332031 3.167969 -22.382812 C 2.058594 -20.535156 1.160156 -18.476562 0.738281 -16.523438 C -0.476562 -10.082031 5.542969 -10.398438 11.824219 -15.308594 C 14.886719 -17.738281 17.367188 -20.484375 19.691406 -23.070312 C 20.113281 -23.492188 19.585938 -23.863281 19.164062 -23.4375 Z M 19.164062 -23.4375 "/></g></g></g><g fill="#3d3b3a" fill-opacity="1"><g transform="translate(285.999518, 174.787158)"><g><path d="M 18.847656 -23.492188 C 14.359375 -19.742188 10.875 -17.472656 5.703125 -17.105469 C 6.175781 -18.054688 6.492188 -19.003906 6.757812 -19.957031 C 8.816406 -29.40625 -2.429688 -25.394531 -2.585938 -19.164062 C -3.113281 -18.109375 -3.484375 -17 -3.644531 -15.941406 C -4.328125 -10.609375 1.320312 -10.1875 4.855469 -15.519531 C 10.503906 -15.996094 14.519531 -18.425781 19.320312 -23.015625 C 19.742188 -23.4375 19.320312 -23.863281 18.847656 -23.492188 Z M 5.492188 -19.796875 C 5.277344 -18.898438 4.960938 -17.949219 4.488281 -17.050781 C 2.164062 -17.050781 -0.632812 -17.367188 -0.792969 -19.53125 C -0.265625 -20.535156 0.6875 -21.75 1.742188 -22.277344 C 2.429688 -22.648438 2.691406 -23.4375 2.164062 -23.703125 C 4.222656 -24.601562 6.175781 -23.332031 5.492188 -19.796875 Z M -1.792969 -17 C -0.6875 -15.730469 1.425781 -15.414062 3.484375 -15.46875 C 0.632812 -11.71875 -2.746094 -12.933594 -1.792969 -17 Z M -1.792969 -17 "/></g></g></g><g fill="#3d3b3a" fill-opacity="1"><g transform="translate(304.211431, 174.787158)"><g><path d="M 29.035156 -23.4375 C 21.699219 -17.316406 15.941406 -17.15625 14.464844 -18.636719 C 15.097656 -20.167969 15.625 -21.855469 15.890625 -23.546875 C 16.046875 -24.546875 14.570312 -24.546875 13.410156 -22.59375 C 12.40625 -20.90625 12.195312 -18.847656 13.25 -17.738281 C 12.246094 -15.519531 10.242188 -12.933594 8.128906 -13.199219 C 5.226562 -13.460938 8.550781 -19.742188 8.921875 -22.648438 C 9.1875 -24.441406 7.761719 -24.285156 6.808594 -22.910156 C 5.226562 -20.484375 2.375 -13.144531 -0.582031 -13.304688 C -2.535156 -13.355469 -2.640625 -17.527344 1.636719 -23.808594 C 2.324219 -24.8125 0.949219 -25.339844 0.265625 -24.285156 C -2.585938 -20.167969 -5.597656 -11.613281 -1.214844 -11.667969 C 3.484375 -11.667969 5.542969 -20.113281 7.445312 -22.648438 C 7.867188 -23.28125 8.078125 -23.332031 7.917969 -22.648438 C 7.390625 -20.640625 2.429688 -11.613281 7.601562 -11.773438 C 10.347656 -11.824219 12.511719 -14.519531 13.832031 -17.261719 C 16.261719 -15.730469 22.699219 -16.734375 29.5625 -23.015625 C 29.984375 -23.386719 29.5625 -23.914062 29.035156 -23.4375 Z M 14.304688 -21.855469 C 14.253906 -21.011719 14.148438 -20.324219 13.9375 -19.636719 C 13.832031 -20.273438 13.9375 -21.011719 14.304688 -21.855469 Z M 14.304688 -21.855469 "/></g></g></g><g fill="#3d3b3a" fill-opacity="1"><g transform="translate(332.980941, 174.787158)"><g><path d="M 25.289062 -23.492188 C 22.066406 -20.695312 19.058594 -17.84375 16.3125 -16.472656 C 10.609375 -13.566406 10.769531 -18.109375 10.875 -20.640625 C 11.140625 -26.449219 6.703125 -25.710938 3.429688 -21.484375 C 0.949219 -18.320312 -1.003906 -13.832031 -2.113281 -12.882812 C -2.796875 -14.304688 0.160156 -21.011719 1.476562 -23.4375 C 2.007812 -24.441406 0.527344 -24.757812 0 -23.703125 C -1.847656 -20.378906 -3.644531 -15.203125 -3.429688 -12.777344 C -3.273438 -11.402344 -2.164062 -11.085938 -0.738281 -12.933594 C 0.582031 -14.675781 2.375 -18.320312 4.433594 -20.851562 C 6.863281 -23.863281 9.238281 -24.546875 9.082031 -20.0625 C 9.027344 -17.421875 9.34375 -11.457031 16.578125 -15.414062 C 19.796875 -17.15625 23.015625 -20.429688 25.761719 -23.015625 C 26.238281 -23.4375 25.761719 -23.914062 25.289062 -23.492188 Z M 25.289062 -23.492188 "/></g></g></g><g fill="#3d3b3a" fill-opacity="1"><g transform="translate(132.818885, 238.073662)"><g><path d="M 4.65625 0.09375 C 3.5625 0.09375 2.707031 -0.21875 2.09375 -0.84375 C 1.476562 -1.476562 1.171875 -2.382812 1.171875 -3.5625 L 1.171875 -8.265625 L 2.34375 -8.265625 L 2.34375 -3.609375 C 2.34375 -1.835938 3.117188 -0.953125 4.671875 -0.953125 C 5.421875 -0.953125 5.992188 -1.171875 6.390625 -1.609375 C 6.796875 -2.046875 7 -2.710938 7 -3.609375 L 7 -8.265625 L 8.15625 -8.265625 L 8.15625 -3.5625 C 8.15625 -2.375 7.847656 -1.46875 7.234375 -0.84375 C 6.617188 -0.21875 5.757812 0.09375 4.65625 0.09375 Z M 4.65625 0.09375 "/></g></g></g><g fill="#3d3b3a" fill-opacity="1"><g transform="translate(143.915843, 238.073662)"><g><path d="M 6.421875 0 L 3.953125 -3.40625 L 1.515625 0 L 0.15625 0 L 3.25 -4.234375 L 0.34375 -8.265625 L 1.6875 -8.265625 L 4 -5.078125 L 6.28125 -8.265625 L 7.578125 -8.265625 L 4.65625 -4.265625 L 7.78125 0 Z M 6.421875 0 "/></g></g></g><g fill="#3d3b3a" fill-opacity="1"><g transform="translate(153.621329, 238.073662)"><g><path d="M 3.5625 -9.9375 L 4.59375 -9.9375 L 0.703125 1.1875 L -0.328125 1.1875 Z M 3.5625 -9.9375 "/></g></g></g><g fill="#3d3b3a" fill-opacity="1"><g transform="translate(159.541559, 238.073662)"><g><path d="M 4.65625 0.09375 C 3.5625 0.09375 2.707031 -0.21875 2.09375 -0.84375 C 1.476562 -1.476562 1.171875 -2.382812 1.171875 -3.5625 L 1.171875 -8.265625 L 2.34375 -8.265625 L 2.34375 -3.609375 C 2.34375 -1.835938 3.117188 -0.953125 4.671875 -0.953125 C 5.421875 -0.953125 5.992188 -1.171875 6.390625 -1.609375 C 6.796875 -2.046875 7 -2.710938 7 -3.609375 L 7 -8.265625 L 8.15625 -8.265625 L 8.15625 -3.5625 C 8.15625 -2.375 7.847656 -1.46875 7.234375 -0.84375 C 6.617188 -0.21875 5.757812 0.09375 4.65625 0.09375 Z M 4.65625 0.09375 "/></g></g></g><g fill="#3d3b3a" fill-opacity="1"><g transform="translate(170.638518, 238.073662)"><g><path d="M 1.234375 -8.265625 L 2.421875 -8.265625 L 2.421875 0 L 1.234375 0 Z M 1.234375 -8.265625 "/></g></g></g><g fill="#3d3b3a" fill-opacity="1"><g transform="translate(176.06348, 238.073662)"><g/></g></g><g fill="#3d3b3a" fill-opacity="1"><g transform="translate(181.004959, 238.073662)"><g><path d="M 1.234375 -8.265625 L 4.71875 -8.265625 C 5.59375 -8.265625 6.367188 -8.085938 7.046875 -7.734375 C 7.722656 -7.390625 8.242188 -6.90625 8.609375 -6.28125 C 8.984375 -5.65625 9.171875 -4.9375 9.171875 -4.125 C 9.171875 -3.3125 8.984375 -2.59375 8.609375 -1.96875 C 8.242188 -1.34375 7.722656 -0.859375 7.046875 -0.515625 C 6.367188 -0.171875 5.59375 0 4.71875 0 L 1.234375 0 Z M 4.640625 -1.03125 C 5.316406 -1.03125 5.90625 -1.160156 6.40625 -1.421875 C 6.914062 -1.679688 7.304688 -2.039062 7.578125 -2.5 C 7.859375 -2.96875 8 -3.507812 8 -4.125 C 8 -4.738281 7.859375 -5.28125 7.578125 -5.75 C 7.304688 -6.21875 6.914062 -6.582031 6.40625 -6.84375 C 5.90625 -7.101562 5.316406 -7.234375 4.640625 -7.234375 L 2.421875 -7.234375 L 2.421875 -1.03125 Z M 4.640625 -1.03125 "/></g></g></g><g fill="#3d3b3a" fill-opacity="1"><g transform="translate(192.514639, 238.073662)"><g><path d="M 7.234375 -1.03125 L 7.234375 0 L 1.234375 0 L 1.234375 -8.265625 L 7.0625 -8.265625 L 7.0625 -7.234375 L 2.421875 -7.234375 L 2.421875 -4.6875 L 6.5625 -4.6875 L 6.5625 -3.6875 L 2.421875 -3.6875 L 2.421875 -1.03125 Z M 7.234375 -1.03125 "/></g></g></g><g fill="#3d3b3a" fill-opacity="1"><g transform="translate(202.184744, 238.073662)"><g><path d="M 3.640625 0.09375 C 3.023438 0.09375 2.425781 0 1.84375 -0.1875 C 1.269531 -0.382812 0.816406 -0.632812 0.484375 -0.9375 L 0.921875 -1.859375 C 1.234375 -1.578125 1.632812 -1.347656 2.125 -1.171875 C 2.613281 -0.992188 3.117188 -0.90625 3.640625 -0.90625 C 4.328125 -0.90625 4.835938 -1.019531 5.171875 -1.25 C 5.515625 -1.488281 5.6875 -1.800781 5.6875 -2.1875 C 5.6875 -2.46875 5.59375 -2.695312 5.40625 -2.875 C 5.21875 -3.050781 4.988281 -3.1875 4.71875 -3.28125 C 4.445312 -3.375 4.066406 -3.476562 3.578125 -3.59375 C 2.953125 -3.75 2.445312 -3.898438 2.0625 -4.046875 C 1.6875 -4.191406 1.363281 -4.421875 1.09375 -4.734375 C 0.820312 -5.046875 0.6875 -5.46875 0.6875 -6 C 0.6875 -6.4375 0.800781 -6.832031 1.03125 -7.1875 C 1.257812 -7.539062 1.609375 -7.820312 2.078125 -8.03125 C 2.554688 -8.25 3.144531 -8.359375 3.84375 -8.359375 C 4.332031 -8.359375 4.8125 -8.289062 5.28125 -8.15625 C 5.757812 -8.03125 6.164062 -7.851562 6.5 -7.625 L 6.109375 -6.671875 C 5.765625 -6.890625 5.394531 -7.054688 5 -7.171875 C 4.601562 -7.285156 4.21875 -7.34375 3.84375 -7.34375 C 3.175781 -7.34375 2.675781 -7.222656 2.34375 -6.984375 C 2.007812 -6.742188 1.84375 -6.429688 1.84375 -6.046875 C 1.84375 -5.753906 1.9375 -5.519531 2.125 -5.34375 C 2.3125 -5.164062 2.546875 -5.03125 2.828125 -4.9375 C 3.109375 -4.84375 3.488281 -4.738281 3.96875 -4.625 C 4.582031 -4.476562 5.078125 -4.328125 5.453125 -4.171875 C 5.835938 -4.023438 6.164062 -3.796875 6.4375 -3.484375 C 6.707031 -3.179688 6.84375 -2.769531 6.84375 -2.25 C 6.84375 -1.820312 6.722656 -1.425781 6.484375 -1.0625 C 6.253906 -0.707031 5.894531 -0.425781 5.40625 -0.21875 C 4.925781 -0.0078125 4.335938 0.09375 3.640625 0.09375 Z M 3.640625 0.09375 "/></g></g></g><g fill="#3d3b3a" fill-opacity="1"><g transform="translate(211.277047, 238.073662)"><g><path d="M 1.234375 -8.265625 L 2.421875 -8.265625 L 2.421875 0 L 1.234375 0 Z M 1.234375 -8.265625 "/></g></g></g><g fill="#3d3b3a" fill-opacity="1"><g transform="translate(216.702008, 238.073662)"><g><path d="M 6.953125 -4.171875 L 8.09375 -4.171875 L 8.09375 -0.953125 C 7.6875 -0.617188 7.207031 -0.359375 6.65625 -0.171875 C 6.113281 0.00390625 5.550781 0.09375 4.96875 0.09375 C 4.132812 0.09375 3.378906 -0.0859375 2.703125 -0.453125 C 2.035156 -0.816406 1.507812 -1.316406 1.125 -1.953125 C 0.75 -2.597656 0.5625 -3.320312 0.5625 -4.125 C 0.5625 -4.925781 0.75 -5.648438 1.125 -6.296875 C 1.507812 -6.941406 2.039062 -7.445312 2.71875 -7.8125 C 3.394531 -8.175781 4.148438 -8.359375 4.984375 -8.359375 C 5.648438 -8.359375 6.25 -8.25 6.78125 -8.03125 C 7.320312 -7.8125 7.78125 -7.492188 8.15625 -7.078125 L 7.4375 -6.34375 C 6.769531 -6.976562 5.96875 -7.296875 5.03125 -7.296875 C 4.40625 -7.296875 3.84375 -7.160156 3.34375 -6.890625 C 2.84375 -6.617188 2.453125 -6.238281 2.171875 -5.75 C 1.890625 -5.269531 1.75 -4.726562 1.75 -4.125 C 1.75 -3.53125 1.890625 -2.988281 2.171875 -2.5 C 2.453125 -2.019531 2.84375 -1.640625 3.34375 -1.359375 C 3.84375 -1.085938 4.40625 -0.953125 5.03125 -0.953125 C 5.769531 -0.953125 6.410156 -1.128906 6.953125 -1.484375 Z M 6.953125 -4.171875 "/></g></g></g><g fill="#3d3b3a" fill-opacity="1"><g transform="translate(227.57491, 238.073662)"><g><path d="M 8.34375 -8.265625 L 8.34375 0 L 7.375 0 L 2.421875 -6.15625 L 2.421875 0 L 1.234375 0 L 1.234375 -8.265625 L 2.203125 -8.265625 L 7.15625 -2.09375 L 7.15625 -8.265625 Z M 8.34375 -8.265625 "/></g></g></g><g fill="#3d3b3a" fill-opacity="1"><g transform="translate(238.919497, 238.073662)"><g><path d="M 7.234375 -1.03125 L 7.234375 0 L 1.234375 0 L 1.234375 -8.265625 L 7.0625 -8.265625 L 7.0625 -7.234375 L 2.421875 -7.234375 L 2.421875 -4.6875 L 6.5625 -4.6875 L 6.5625 -3.6875 L 2.421875 -3.6875 L 2.421875 -1.03125 Z M 7.234375 -1.03125 "/></g></g></g><g fill="#3d3b3a" fill-opacity="1"><g transform="translate(248.589596, 238.073662)"><g><path d="M 6.765625 0 L 4.984375 -2.53125 C 4.753906 -2.519531 4.578125 -2.515625 4.453125 -2.515625 L 2.421875 -2.515625 L 2.421875 0 L 1.234375 0 L 1.234375 -8.265625 L 4.453125 -8.265625 C 5.523438 -8.265625 6.367188 -8.003906 6.984375 -7.484375 C 7.597656 -6.972656 7.90625 -6.269531 7.90625 -5.375 C 7.90625 -4.738281 7.742188 -4.195312 7.421875 -3.75 C 7.109375 -3.300781 6.664062 -2.972656 6.09375 -2.765625 L 8.046875 0 Z M 4.421875 -3.515625 C 5.171875 -3.515625 5.738281 -3.675781 6.125 -4 C 6.519531 -4.320312 6.71875 -4.78125 6.71875 -5.375 C 6.71875 -5.976562 6.519531 -6.4375 6.125 -6.75 C 5.738281 -7.070312 5.171875 -7.234375 4.421875 -7.234375 L 2.421875 -7.234375 L 2.421875 -3.515625 Z M 4.421875 -3.515625 "/></g></g></g></svg>